<?xml version="1.0" standalone="no"?>
<!DOCTYPE svg PUBLIC "-//W3C//DTD SVG 1.1//EN" "http://www.w3.org/Graphics/SVG/1.1/DTD/svg11.dtd" >
<svg xmlns="http://www.w3.org/2000/svg">
<metadata>
This is a custom SVG webfont generated by Font Squirrel.
Copyright   :  1990 1991 1998 2002 Adobe Systems Incorporated All rights reserved  1989 1990 1998 2002 The Monotype Corporation PLC All rights reserved
Designer    : Eric Gill
Foundry URL : httpwwwadobecomtype
</metadata>
<defs>
<font id="GillSansStdLightItalic" horiz-adv-x="917" >
<font-face units-per-em="2048" ascent="1397" descent="-651" />
<missing-glyph horiz-adv-x="569" />
<glyph unicode=" "  horiz-adv-x="569" />
<glyph unicode="&#x09;" horiz-adv-x="569" />
<glyph unicode="&#xa0;" horiz-adv-x="569" />
<glyph unicode="!" horiz-adv-x="342" d="M20 0l25 182h121l-25 -182h-121zM113 360l120 1037h115l-192 -1037h-43z" />
<glyph unicode="&#x22;" horiz-adv-x="569" d="M117 1174v223h135v-223l-25 -256h-86zM399 1174v223h136v-223l-25 -256h-86z" />
<glyph unicode="#" horiz-adv-x="1351" d="M184 430v94h191l80 391h-271v95h291l86 420h94l-86 -420h389l89 420h94l-88 -420h168v-95h-187l-82 -391h269v-94h-289l-86 -416h-94l86 416h-389l-87 -416h-94l86 416h-170zM469 524h389l82 391h-391z" />
<glyph unicode="$" d="M39 76l12 98q141 -92 299 -98l78 557q-166 90 -230.5 163.5t-64.5 186.5q0 150 110.5 249t282.5 101l13 82h92l-13 -82q170 -20 250 -71l-14 -95q-137 66 -250 72l-76 -545q154 -78 224.5 -164t70.5 -200q0 -141 -111.5 -238.5t-283.5 -109.5l-31 -215h-92l31 215 q-188 16 -297 94zM231 981q0 -74 47.5 -125t165.5 -113l70 498q-127 -10 -205 -82t-78 -178zM442 76q123 8 203 76.5t80 166.5q0 86 -48 138.5t-165 124.5z" />
<glyph unicode="%" horiz-adv-x="1429" d="M59 1085.5q0 137.5 96.5 233.5t233.5 96q135 0 232.5 -96t97.5 -233.5t-97.5 -233.5t-232.5 -96q-137 0 -233.5 96t-96.5 233.5zM115 -23l1126 1432h100l-1124 -1432h-102zM147 1085q0 -100 71 -170.5t171 -70.5t171 70.5t71 171t-71 171t-171 70.5t-171 -72t-71 -170z M752 305q0 137 96 233.5t233 96.5q135 0 232.5 -96.5t97.5 -233.5t-97 -233.5t-233 -96.5q-137 0 -233 96.5t-96 233.5zM840 305q0 -100 70.5 -171t171 -71t171 71t70.5 171.5t-70.5 171t-171 70.5t-171 -72t-70.5 -170z" />
<glyph unicode="&#x26;" horiz-adv-x="1343" d="M84 354q0 256 346 422q-96 186 -96 316q0 139 88 231t221 92q115 0 198 -82t83 -194q0 -221 -361 -404q176 -301 311 -467q78 74 158 186.5t131 221.5h105q-84 -217 -322 -477q82 -74 180.5 -108t171.5 -17l-49 -90q-193 -18 -375 149q-100 -82 -186 -116.5t-192 -34.5 q-174 0 -293 107t-119 265zM193 354q0 -121 87 -199.5t218 -78.5q156 0 307 125q-129 147 -330 493q-147 -80 -214.5 -162t-67.5 -178zM434 1108q0 -135 84 -289q158 82 229.5 160t71.5 170q0 70 -53 121t-127 51q-84 0 -144.5 -63.5t-60.5 -149.5z" />
<glyph unicode="'" horiz-adv-x="454" d="M221 1174v223h135v-223l-24 -256h-86z" />
<glyph unicode="(" horiz-adv-x="618" d="M111 317q0 582 503 1098h119q-258 -256 -392 -524t-134 -592q0 -403 201 -770h-101q-88 166 -142 382t-54 406z" />
<glyph unicode=")" horiz-adv-x="618" d="M-174 -471q258 256 392 524.5t134 591.5q0 403 -200 770h100q88 -166 142.5 -382t54.5 -406q0 -582 -504 -1098h-119z" />
<glyph unicode="*" horiz-adv-x="960" d="M137 954v95l373 -37l2 12l-287 231l72 72l233 -285l11 5l-37 368h94l-35 -366l10 -7l238 285l70 -72l-287 -231l4 -10l369 33v-97l-369 41l-6 -12l289 -234l-70 -69l-238 289l-10 -2l35 -379h-94l37 379l-9 2l-235 -289l-72 69l291 234l-4 10z" />
<glyph unicode="+" horiz-adv-x="1351" d="M166 674v90h491v491h91v-491h491v-90h-491v-492h-91v492h-491z" />
<glyph unicode="," horiz-adv-x="342" d="M-18 -231l8 59q76 61 88 172h-41l24 182h121l-22 -162q-12 -82 -62 -158.5t-116 -92.5z" />
<glyph unicode="-" horiz-adv-x="555" d="M29 408l10 79h487l-12 -79h-485z" />
<glyph unicode="." horiz-adv-x="342" d="M55 0l25 182h121l-25 -182h-121z" />
<glyph unicode="/" horiz-adv-x="575" d="M43 -18l451 1433h94l-449 -1433h-96z" />
<glyph unicode="0" horiz-adv-x="1067" d="M111 471q0 102 18 221t60 249t104.5 234.5t160 172t214.5 67.5q125 0 205.5 -76.5t109.5 -179t29 -227.5q0 -240 -64.5 -454t-193.5 -355t-295 -141q-170 0 -259 134t-89 355zM207 459q0 -184 67.5 -287.5t186.5 -103.5q98 0 179 66.5t130 166.5t84 221t48 221.5 t13 178.5q0 193 -66.5 300t-186.5 107q-113 0 -205 -93t-144.5 -234.5t-79 -282.5t-26.5 -260z" />
<glyph unicode="1" horiz-adv-x="1069" d="M408 0l194 1397h92l-194 -1397h-92z" />
<glyph unicode="2" horiz-adv-x="1067" d="M74 0q98 92 204.5 215t152.5 181.5t161 207.5q131 170 189.5 281.5t58.5 208.5q0 106 -63.5 170.5t-168.5 64.5q-141 0 -342 -137l17 108q193 115 342 115q139 0 226 -87t87 -228q0 -74 -33 -161t-77 -163t-144 -205t-174 -217t-227 -268h602l-13 -86h-798z" />
<glyph unicode="3" horiz-adv-x="1067" d="M86 86l12 84q166 -102 328 -102q166 0 270.5 99t104.5 255q0 127 -86 198.5t-232 73.5l11 66q201 -2 298 86t97 209q0 119 -89 196.5t-222 77.5q-131 0 -273 -80l12 90q137 76 279 76q162 0 272.5 -101.5t110.5 -252.5q0 -74 -22.5 -131.5t-67.5 -98t-83 -64.5t-93 -50 q186 -109 186 -305q0 -186 -132 -308t-333 -122q-198 0 -348 104z" />
<glyph unicode="4" horiz-adv-x="1067" d="M76 477l6 39l758 899h30l-120 -870h227l-8 -68h-230l-67 -477h-92l67 477h-571zM201 545h456l88 641l-4 4z" />
<glyph unicode="5" horiz-adv-x="1067" d="M47 98l39 76q141 -106 305 -106q166 0 284 117.5t118 285.5q0 147 -92.5 235.5t-243.5 88.5q-88 0 -166 -25l88 627h594l-12 -86h-502l-62 -439q55 8 95 9q174 0 286.5 -115t112.5 -293q0 -205 -144.5 -348t-353.5 -143q-201 -1 -346 116z" />
<glyph unicode="6" horiz-adv-x="1067" d="M129 360q0 217 211 525l352 512h103l-435 -625l5 -4q133 88 270 88q145 0 232 -89t87 -241q0 -217 -144 -380.5t-333 -163.5q-150 0 -249 108t-99 270zM227 356q0 -133 67.5 -210.5t180.5 -77.5q154 0 267.5 139t113.5 328q0 106 -61.5 170.5t-161.5 64.5 q-168 0 -287 -121t-119 -293z" />
<glyph unicode="7" horiz-adv-x="1067" d="M209 1311l12 86h815l-717 -1397h-98l672 1311h-684z" />
<glyph unicode="8" horiz-adv-x="1067" d="M98 360q0 133 83 247t245 145v4q-176 74 -176 264q0 166 118.5 280.5t290.5 114.5q154 0 252.5 -94t98.5 -242q0 -115 -70 -212t-199 -134v-2q100 -23 156.5 -101.5t56.5 -193.5q0 -186 -137 -320t-328 -134q-164 0 -277.5 107t-113.5 271zM197 354q0 -131 86 -209.5 t206 -76.5q152 2 259.5 105t107.5 253q0 123 -83 198.5t-216 75.5q-158 0 -259 -98t-101 -248zM348 1022q0 -104 75 -170t191 -66q139 0 218 89.5t79 197.5q0 113 -70.5 184.5t-181.5 71.5q-129 0 -220 -90t-91 -217z" />
<glyph unicode="9" horiz-adv-x="1067" d="M170 872q0 113 50 234t164 215t265 94q154 0 250 -104.5t96 -274.5q0 -217 -192 -493l-377 -543h-107l455 651l-4 4q-131 -111 -278 -110q-143 0 -232.5 91t-89.5 236zM268 868q0 -109 60.5 -173t163.5 -64q168 0 286.5 121.5t118.5 291.5q0 129 -66.5 207t-179.5 78 q-154 0 -268.5 -139.5t-114.5 -321.5z" />
<glyph unicode=":" horiz-adv-x="342" d="M31 0l24 182h121l-24 -182h-121zM139 737l25 183h121l-25 -183h-121z" />
<glyph unicode=";" horiz-adv-x="342" d="M-10 -231l8 59q76 61 88 172h-41l25 182h120l-22 -162q-12 -82 -62 -158.5t-116 -92.5zM139 737l25 183h121l-25 -183h-121z" />
<glyph unicode="&#x3c;" horiz-adv-x="1351" d="M166 674v86l1073 450v-100l-950 -393l950 -393v-101z" />
<glyph unicode="=" horiz-adv-x="1351" d="M166 426v90h1073v-90h-1073zM166 920v90h1073v-90h-1073z" />
<glyph unicode="&#x3e;" horiz-adv-x="1351" d="M166 223v101l950 393l-950 393v100l1073 -450v-86z" />
<glyph unicode="?" horiz-adv-x="598" d="M43 0l25 182h120l-24 -182h-121zM98 1214l15 103q121 98 260 98q123 0 209 -84t86 -203q0 -86 -43 -159.5t-108.5 -133t-134.5 -122t-126 -153.5t-78 -198h-51q8 106 58.5 201.5t116 163.5t129 130.5t107.5 132t44 140.5q0 94 -60.5 156t-152.5 62q-136 -1 -271 -134z " />
<glyph unicode="@" horiz-adv-x="1638" d="M27 535q0 131 31.5 254.5t100 238.5t169 200t248 136t325.5 51q190 0 339 -65.5t232.5 -173t125.5 -231.5t42 -257q0 -287 -168.5 -477.5t-347.5 -190.5q-152 0 -112 181l-4 4q-154 -184 -338 -185q-150 0 -248 120t-98 302q0 242 149.5 429.5t364.5 187.5q92 0 173 -48 t126 -145h4l33 168h124l-170 -803q-16 -63 -10 -91.5t47 -28.5q51 0 116 38.5t127 107.5t105 183.5t43 247.5q0 84 -17 166t-64.5 171t-119 155.5t-192.5 109.5t-274 43q-342 0 -560 -224t-218 -577q0 -348 218 -562t570 -214q438 0 672 312h102q-113 -193 -322.5 -293.5 t-453.5 -100.5q-389 0 -629.5 238t-240.5 623zM451 436q0 -137 72.5 -228t183 -91t202.5 99t137.5 229t45.5 243q0 123 -72 203t-184 80q-123 0 -215.5 -95.5t-131 -213t-38.5 -226.5z" />
<glyph unicode="A" horiz-adv-x="1110" d="M-57 0l659 1415h86l322 -1415h-99l-114 504h-518l-238 -504h-98zM324 598h452l-149 645h-4z" />
<glyph unicode="B" horiz-adv-x="1087" d="M86 0l197 1397h135q231 0 349 -102.5t118 -245.5q0 -180 -187 -277q143 -39 222 -136t79 -230q0 -180 -144 -293t-378 -113h-391zM195 90h270q225 0 326.5 92t101.5 219q0 137 -101.5 223.5t-261.5 86.5h-247zM295 801h143q164 0 252 64.5t88 185.5q0 119 -87 187.5 t-238 68.5h-88z" />
<glyph unicode="C" horiz-adv-x="1130" d="M82 563q0 213 111.5 407.5t321.5 319.5t468 125q96 0 176 -18l-12 -90q-98 14 -166 14q-225 0 -410.5 -111.5t-284 -282.5t-98.5 -360q0 -209 128 -350t317 -141q211 0 442 149l-16 -114q-98 -57 -215 -93t-209 -36q-211 0 -382 158.5t-171 422.5z" />
<glyph unicode="D" horiz-adv-x="1343" d="M90 0l197 1397h248q182 0 342.5 -79t268 -245t107.5 -387q0 -305 -204.5 -495.5t-513.5 -190.5h-445zM201 90h297q143 0 257.5 38t186.5 98.5t120 141.5t66.5 159.5t18.5 158.5q0 283 -188.5 452t-464.5 169h-119z" />
<glyph unicode="E" horiz-adv-x="1087" d="M92 0l197 1397h712l-12 -94h-616l-78 -541h584l-15 -94h-581l-82 -574h825l-12 -94h-922z" />
<glyph unicode="F" horiz-adv-x="854" d="M92 0l197 1397h641l-12 -94h-545l-78 -547h508l-12 -94h-508l-95 -662h-96z" />
<glyph unicode="G" horiz-adv-x="1259" d="M80 588q0 158 64.5 304t183 264t305 188.5t411.5 70.5q131 0 261 -33l-13 -92q-145 31 -256 31q-389 0 -619.5 -215t-230.5 -526q0 -221 137.5 -362.5t354.5 -141.5q147 0 338 94l45 311h-313l12 94h409l-63 -452q-207 -141 -440 -141q-231 0 -408.5 162.5t-177.5 443.5z " />
<glyph unicode="H" horiz-adv-x="1429" d="M82 0l194 1397h97l-90 -637h919l90 637h97l-197 -1397h-96l92 666h-918l-92 -666h-96z" />
<glyph unicode="I" horiz-adv-x="405" d="M82 0l197 1397h96l-197 -1397h-96z" />
<glyph unicode="J" horiz-adv-x="405" d="M-307 -354q57 -20 133 -21q115 0 173 75t85 255l203 1442h94l-217 -1532q-47 -336 -336 -336q-57 0 -117 16z" />
<glyph unicode="K" horiz-adv-x="1110" d="M82 0l197 1397h96l-86 -615l751 615h142l-768 -639l735 -758h-127l-737 758l-107 -758h-96z" />
<glyph unicode="L" horiz-adv-x="854" d="M76 0l196 1397h97l-185 -1303h627l-12 -94h-723z" />
<glyph unicode="M" horiz-adv-x="1642" d="M-27 0l463 1397h82l248 -1176h4l623 1176h88v-1397h-101v1176h-4l-620 -1176h-35l-250 1186h-4l-393 -1186h-101z" />
<glyph unicode="N" horiz-adv-x="1409" d="M92 0l197 1397h55l756 -1196l168 1196h96l-199 -1409h-43l-766 1204l-168 -1192h-96z" />
<glyph unicode="O" horiz-adv-x="1343" d="M117 561q0 104 21.5 217t73.5 227.5t126 204.5t189.5 147.5t254.5 57.5q225 0 356.5 -151.5t131.5 -413.5q0 -358 -186.5 -613t-473.5 -255q-238 0 -365.5 152.5t-127.5 426.5zM223 530q0 -217 102.5 -335.5t286.5 -118.5q254 0 402.5 232.5t148.5 563.5 q0 207 -102.5 328t-278.5 121q-123 0 -223 -56.5t-160.5 -141.5t-101.5 -194.5t-57.5 -209t-16.5 -189.5z" />
<glyph unicode="P" horiz-adv-x="960" d="M76 0l196 1397h279q176 0 284.5 -103.5t108.5 -267.5t-111.5 -281.5t-351.5 -117.5h-221l-88 -627h-96zM272 717h201q199 0 282 91t83 214q0 127 -81 206t-216 79h-185z" />
<glyph unicode="Q" horiz-adv-x="1343" d="M117 555q0 152 43 300.5t122.5 275t212 205.5t293.5 79q227 0 354.5 -150.5t127.5 -418.5q0 -209 -66.5 -397.5t-215 -323.5t-351.5 -143q61 -135 154.5 -206t207.5 -71q125 0 204 82t81 213h27q2 -20 1 -40q0 -138 -75 -241q-86 -117 -256 -116q-150 0 -279 106.5 t-180 272.5q-109 12 -190.5 68t-126.5 139t-66.5 174.5t-21.5 191.5zM223 526q0 -213 104.5 -331.5t293.5 -118.5q170 0 298 124t186 300t58 368q0 213 -99 333t-280 120q-254 0 -407.5 -231.5t-153.5 -563.5z" />
<glyph unicode="R" horiz-adv-x="1067" d="M82 0l194 1397h320q178 0 277.5 -102.5t99.5 -260.5q0 -143 -87 -245.5t-235 -133.5q47 -33 144 -200l254 -455h-113l-234 418q-14 25 -36.5 66.5t-30.5 56t-23.5 40t-24.5 31.5t-22.5 19.5t-28 15.5t-32 5t-41.5 3h-193l-92 -655h-96zM283 745h254q154 0 241.5 77 t87.5 210q0 104 -65.5 189.5t-212.5 85.5h-228z" />
<glyph unicode="S" horiz-adv-x="854" d="M61 76l25 94q147 -94 260 -94q121 0 204 74.5t83 209.5q0 86 -47 158t-113.5 123t-134.5 104.5t-115 130t-47 168.5q0 158 104.5 264.5t260.5 106.5q70 0 142.5 -22.5t113.5 -55.5l-25 -88q-141 72 -231 72q-106 0 -182 -78t-76 -186q0 -74 33.5 -134.5t85 -99.5 t109.5 -85t109.5 -92t85 -120.5t33.5 -167.5q0 -162 -109.5 -269t-273.5 -107q-70 0 -157 27.5t-138 66.5z" />
<glyph unicode="T" horiz-adv-x="937" d="M123 1303l12 94h924l-12 -94h-414l-184 -1303h-97l185 1303h-414z" />
<glyph unicode="U" horiz-adv-x="1300" d="M133 502l127 895h96l-125 -881q-7 -47 -6 -89q0 -152 87 -240q112 -112 288 -111q203 0 318.5 127t140.5 299l129 895h96l-129 -903q-18 -133 -75.5 -234.5t-138.5 -161t-171 -88t-186 -28.5q-209 0 -346 145q-111 117 -111 289q0 42 6 86z" />
<glyph unicode="V" horiz-adv-x="980" d="M139 1397h97l231 -1172h4l535 1172h100l-633 -1415h-39z" />
<glyph unicode="W" horiz-adv-x="1835" d="M139 1397h97l247 -1178h4l543 1178h39l219 -1178h4l563 1178h105l-680 -1415h-41l-217 1165h-4l-533 -1165h-43z" />
<glyph unicode="X" horiz-adv-x="1323" d="M-61 0l700 729l-451 668h115l408 -592l563 592h127l-641 -668l489 -729h-114l-445 653l-622 -653h-129z" />
<glyph unicode="Y" horiz-adv-x="980" d="M152 1397h104l305 -578l443 578h116l-522 -674l-100 -723h-97l101 723z" />
<glyph unicode="Z" horiz-adv-x="1300" d="M-14 0v33l1167 1270h-944l12 94h1114v-33l-1167 -1270h989l-12 -94h-1159z" />
<glyph unicode="[" horiz-adv-x="618" d="M16 -453l273 1850h432l-10 -80h-340l-248 -1690h350l-10 -80h-447z" />
<glyph unicode="\" horiz-adv-x="575" d="M35 1415h96l449 -1433h-95z" />
<glyph unicode="]" horiz-adv-x="618" d="M-115 -453l11 80h340l247 1690h-350l10 80h447l-273 -1850h-432z" />
<glyph unicode="^" horiz-adv-x="1351" d="M287 879l448 536l449 -536l-66 -54l-383 461l-385 -461z" />
<glyph unicode="_" horiz-adv-x="1024" d="M-12 -154h1048v-102h-1048v102z" />
<glyph unicode="`" horiz-adv-x="681" d="M94 1386h164l215 -315h-67z" />
<glyph unicode="a" horiz-adv-x="980" d="M66 350q0 109 43 213.5t121.5 188.5t206.5 135t282 51q111 0 188 -18l-129 -920h-90l14 109q-141 -127 -315 -127q-139 0 -230 104t-91 264zM162 338q0 -127 65.5 -204t173.5 -77q154 0 316 156l92 645q-49 12 -113 12q-217 0 -375.5 -149.5t-158.5 -382.5z" />
<glyph unicode="b" horiz-adv-x="960" d="M59 0l197 1397h90l-84 -592l4 -4q137 137 291 137q143 0 236.5 -108.5t93.5 -274.5q0 -109 -36 -207t-107.5 -182t-193.5 -134t-278 -50q-131 0 -213 18zM160 72q58 -7 111 -7q215 0 351 113q169 141 169 375q0 131 -73 216t-188 85q-96 0 -189 -72.5t-105 -160.5z" />
<glyph unicode="c" horiz-adv-x="788" d="M53 391q0 96 34 190.5t98.5 175.5t172 131t240.5 50q88 0 180 -18l-14 -99q-100 27 -174 27q-143 0 -246.5 -73t-148.5 -176t-45 -218q0 -143 84.5 -229t224.5 -86q90 0 262 75l-14 -96q-129 -63 -271 -63q-172 0 -277.5 113.5t-105.5 295.5z" />
<glyph unicode="d" horiz-adv-x="960" d="M57 408q0 121 62.5 237.5t165.5 185.5q152 106 397 107q20 0 135 -8l66 467h90l-195 -1387l-35 -6q-127 -23 -213 -22q-193 0 -305 86q-168 125 -168 340zM154 403q0 -174 114.5 -264t268.5 -90q76 0 159 23l109 782q-63 16 -127 16q-178 0 -301 -73 q-102 -61 -162.5 -168t-60.5 -226z" />
<glyph unicode="e" d="M78 424q0 217 123 365.5t303 148.5q150 0 238.5 -104.5t88.5 -284.5q0 -29 -4 -70h-649q-4 -37 -4 -59q0 -137 82 -245.5t231 -108.5q147 0 287 114v-96q-133 -102 -289 -102q-184 0 -295.5 120.5t-111.5 321.5zM193 559h548q1 12 1 23q0 123 -61 194q-67 78 -179 78 q-109 0 -200 -87t-109 -208z" />
<glyph unicode="f" horiz-adv-x="512" d="M57 852l11 68h184l16 120q23 174 120 274.5t251 100.5q119 0 227 -57l-10 -76q-113 57 -211 57q-236 0 -276 -252l-27 -167h217l-10 -68h-217l-176 -1260h-90l176 1260h-185z" />
<glyph unicode="g" horiz-adv-x="874" d="M-20 -242q0 86 78.5 143.5t236.5 96.5v4q-188 37 -188.5 139.5t188.5 137.5v4q-92 33 -144.5 110.5t-52.5 179.5q0 150 112 257.5t269 107.5h439l-11 -68h-258v-4q135 -82 135 -250q0 -154 -110 -264q-37 -37 -98.5 -61.5t-93 -29.5t-111.5 -17q-178 -25 -178 -94 q0 -35 34.5 -50.5t153.5 -44.5q80 -20 117 -30.5t98 -34t89 -47t51.5 -62.5t23.5 -88q0 -104 -102.5 -184t-307.5 -80q-184 0 -277 67.5t-93 161.5zM66 -256q0 -68 73.5 -107.5t198.5 -39.5q172 0 254 55t82 135q0 66 -68.5 105.5t-218.5 70.5q-158 -25 -239.5 -84 t-81.5 -135zM184 569q0 -96 60.5 -169.5t165.5 -73.5q80 0 139 34.5t89 86t43 98.5t13 84q0 104 -72.5 168.5t-162.5 64.5q-111 0 -193 -87t-82 -206z" />
<glyph unicode="h" horiz-adv-x="937" d="M47 0l197 1397h90l-92 -664l4 -4q96 102 179 155.5t183 53.5q119 0 184 -82q51 -65 51 -157q0 -23 -3 -48l-92 -651h-91l88 641q3 26 4 49q0 75 -36 114q-47 50 -119 50q-86 0 -162 -50t-207 -186l-88 -618h-90z" />
<glyph unicode="i" horiz-adv-x="362" d="M63 0l130 920h90l-129 -920h-91zM223 1165l23 152h90l-23 -152h-90z" />
<glyph unicode="j" horiz-adv-x="362" d="M-276 -455l12 82q53 -14 90 -14q49 0 87 19.5t59.5 47t39 80t25.5 94.5t18 113l135 953h91l-150 -1041q-27 -174 -89 -262t-206 -88q-53 0 -112 16zM223 1165l23 152h90l-23 -152h-90z" />
<glyph unicode="k" horiz-adv-x="874" d="M45 0l197 1397h90l-129 -910l549 433h135l-549 -433l573 -487h-129l-579 483l-68 -483h-90z" />
<glyph unicode="l" horiz-adv-x="362" d="M59 0l197 1397h90l-196 -1397h-91z" />
<glyph unicode="m" horiz-adv-x="1515" d="M57 0l129 920h90l-22 -160q106 94 184 136t168 42q88 0 147.5 -57.5t69.5 -139.5q178 197 353 197q117 0 183 -78q55 -64 55 -143q0 -17 -3 -35l-96 -682h-90l94 666q3 19 2 35q0 65 -37 104q-47 49 -115 49q-78 0 -174 -55.5t-172 -145.5l-92 -653h-90l90 641q5 30 5 57 q0 67 -30 104q-42 52 -122 52q-168 0 -344 -201l-93 -653h-90z" />
<glyph unicode="n" horiz-adv-x="937" d="M55 0l129 920h90l-20 -152l4 -4q174 174 350 174q115 0 179 -90q51 -72 52 -167q0 -24 -3 -50l-88 -631h-91l86 618q4 31 5 58q0 75 -34 119q-46 59 -130 59q-152 0 -346 -201l-93 -653h-90z" />
<glyph unicode="o" d="M74 369q0 250 120.5 409.5t311.5 159.5q150 0 236.5 -104.5t86.5 -280.5q0 -262 -132 -416.5t-306 -154.5q-133 0 -225 100.5t-92 286.5zM170 367q0 -139 58.5 -220t158.5 -81q143 0 244.5 142t101.5 345q0 137 -62.5 219t-169 82t-183 -72.5t-112.5 -180t-36 -234.5z " />
<glyph unicode="p" horiz-adv-x="1024" d="M33 549q0 43 62.5 126t135.5 136l41 295h90l-32 -236q121 68 227 68q166 0 268.5 -115.5t102.5 -300.5q0 -94 -31 -184t-95.5 -173t-185 -133t-280.5 -50q-68 0 -129 6l-64 -441h-90l168 1186q-47 -41 -88 -93t-60.5 -81t-27.5 -29q-12 1 -12 19zM215 55q64 -8 121 -7 q98 0 177 22q126 35 192.5 109.5t96 159.5t29.5 181q0 154 -80.5 244t-215.5 90q-102 0 -216 -57z" />
<glyph unicode="q" horiz-adv-x="937" d="M66 371q0 106 36.5 204.5t108.5 181.5t193.5 132t277.5 49h192l-194 -1391h-90l69 502q-154 -68 -256 -67q-152 0 -244.5 107.5t-92.5 281.5zM162 371q0 -150 74.5 -236t203.5 -86q92 0 232 76l104 745h-80q-147 0 -256.5 -47t-167 -123.5t-84 -159.5t-26.5 -169z" />
<glyph unicode="r" horiz-adv-x="555" d="M61 0l129 920h91l-35 -252l4 -4q111 156 176.5 215t146.5 59q47 0 91 -18v-91q-51 25 -95 25q-131 0 -340 -307l-77 -547h-91z" />
<glyph unicode="s" horiz-adv-x="724" d="M25 102l28 97q123 -133 285 -133q86 0 143.5 42t57.5 105t-68 124.5t-149.5 106.5t-149.5 116t-68 149q0 98 84 163.5t209 65.5q145 0 281 -86v-100q-164 102 -299 102q-78 0 -133.5 -38t-55.5 -93q0 -57 70 -114.5t153 -101.5t152.5 -120t69.5 -164q0 -100 -87 -170.5 t-214 -70.5q-168 -1 -309 120z" />
<glyph unicode="t" horiz-adv-x="575" d="M63 852l11 68h180l43 210h90l-43 -210h246l-10 -68h-244l-84 -442q-25 -160 -25 -197q0 -84 44 -124t102 -40q84 0 176 80v-84q-100 -63 -191 -63q-102 0 -164.5 68.5t-62.5 168.5q0 76 27 205l88 428h-183z" />
<glyph unicode="u" horiz-adv-x="937" d="M90 260l92 660h90l-92 -656q-3 -20 -2 -37q0 -64 34 -107q44 -54 130 -54q156 0 348 219l88 635h90l-129 -920h-90l25 162l-4 4q-172 -184 -357 -184q-100 0 -171 72q-56 58 -56 154q0 24 4 52z" />
<glyph unicode="v" horiz-adv-x="747" d="M51 920h88l168 -748l400 748h88l-502 -938h-29z" />
<glyph unicode="w" horiz-adv-x="1259" d="M51 920h86l170 -738h4l365 738h37l121 -738h4l376 738h91l-486 -938h-33l-122 725h-5l-360 -725h-33z" />
<glyph unicode="x" horiz-adv-x="937" d="M-39 0l449 483l-252 437h96l217 -369l344 369h107l-408 -449l279 -471h-107l-235 410l-379 -410h-111z" />
<glyph unicode="y" horiz-adv-x="768" d="M-16 -471l256 483l-174 908h90l145 -785h4l410 785h96l-727 -1391h-100z" />
<glyph unicode="z" horiz-adv-x="874" d="M-37 0v37l770 803h-602l12 80h750v-39l-760 -801h643l-12 -80h-801z" />
<glyph unicode="{" horiz-adv-x="681" d="M121 397v131q106 2 149 78t43 258v199q0 180 73 261t220 73v-111q-104 0 -142 -43t-38 -180v-199q0 -166 -47 -264t-152 -137q104 -39 151.5 -137.5t47.5 -264.5v-198q0 -137 38 -180t142 -43v-111q-147 -8 -220 73t-73 261v198q0 182 -43 258t-149 78z" />
<glyph unicode="|" horiz-adv-x="454" d="M207 -512v2048h96v-2048h-96z" />
<glyph unicode="}" horiz-adv-x="681" d="M117 -360q104 0 142 43t38 180v198q0 166 47 264.5t152 137.5q-104 39 -151.5 137t-47.5 264v199q0 137 -38 180t-142 43v111q147 8 220 -73t73 -261v-199q0 -182 43 -258t149 -78v-131q-106 -2 -149 -77.5t-43 -258.5v-198q0 -180 -73 -261t-220 -73v111z" />
<glyph unicode="~" horiz-adv-x="1351" d="M164 596v111q166 121 287 120q78 0 260 -80.5t243 -80.5q57 0 116.5 28.5t168.5 106.5v-111q-166 -121 -281 -121q-82 0 -259 81t-246 81q-63 0 -120.5 -26.5t-168.5 -108.5z" />
<glyph unicode="&#xa1;" horiz-adv-x="342" d="M-39 -455l193 1037h43l-121 -1037h-115zM143 760l25 182h121l-25 -182h-121z" />
<glyph unicode="&#xa2;" horiz-adv-x="788" d="M49 389q0 211 147.5 379t401.5 166l121 369h76l-127 -369q84 -12 106 -19l-12 -94q-2 0 -119 19l-250 -772q160 -20 322 69l-15 -94q-74 -35 -141 -49t-192 -12l-127 -375h-74l129 393q-121 37 -183.5 144.5t-62.5 244.5zM150 393q0 -106 45 -185t127 -116l247 756 q-188 -2 -303.5 -140.5t-115.5 -314.5z" />
<glyph unicode="&#xa3;" horiz-adv-x="960" d="M66 -18l237 651h-180l12 86h199l69 184q92 244 203 378t273 134q84 0 149 -33l-14 -96q-70 35 -137 35q-133 0 -224.5 -127t-171.5 -350l-45 -125h236l-13 -86h-256l-192 -533q59 12 137 13q94 0 203 -23q131 -23 149 -22q94 0 189 43l-10 -99q-18 -10 -86 -22 q-78 -8 -121 -8t-158 18q-92 18 -180 18q-135 0 -234 -36h-34z" />
<glyph unicode="&#xa4;" horiz-adv-x="1138" d="M119 293l129 129q-98 131 -98 278q0 152 98 277l-129 129l65 65l129 -129q127 98 277 99q152 0 278 -99l129 129l66 -65l-129 -129q98 -123 98 -276.5t-98 -278.5l129 -129l-66 -66l-129 129q-123 -98 -278 -98q-154 0 -277 98l-129 -129zM248 700.5q0 -143.5 99 -244 t242.5 -100.5t244 100.5t100.5 244t-100.5 242.5t-244 99t-242.5 -99t-99 -242.5z" />
<glyph unicode="&#xa5;" horiz-adv-x="1138" d="M74 356l12 86h406l43 199h-404l12 86h375l-289 739h133l259 -706l524 706h151l-575 -739h364l-12 -86h-416l-45 -199h408l-10 -86h-416l-80 -356h-119l78 356h-399z" />
<glyph unicode="&#xa6;" horiz-adv-x="454" d="M176 358h98v-716h-98v716zM176 666v716h98v-716h-98z" />
<glyph unicode="&#xa7;" horiz-adv-x="1003" d="M49 -193l84 29q-27 -102 28.5 -170.5t166.5 -68.5q121 0 210 75.5t89 177.5q0 51 -19.5 95.5t-69 88.5t-80 66.5t-102.5 69.5q-63 43 -101 72.5t-82 74.5t-64.5 95.5t-20.5 107.5q0 221 313 344q-109 96 -108 226q0 135 110.5 230t268.5 95q150 0 225.5 -86t44.5 -203 l-86 -39q39 119 -19.5 190t-156.5 71q-121 0 -209 -72t-88 -172q0 -39 17.5 -79t35 -66.5t63.5 -65.5t67.5 -56.5t80.5 -60.5q84 -61 131 -102t90 -108.5t43 -139.5q0 -223 -293 -348q94 -100 95 -221q0 -139 -109.5 -233.5t-271.5 -94.5q-143 0 -223 77.5t-60 200.5z M174 530q0 -106 115 -200q37 -31 132 -98.5t146 -106.5q258 121 258 287q0 96 -110 200q-39 37 -138.5 113t-125.5 96q-135 -61 -206 -126t-71 -165z" />
<glyph unicode="&#xa8;" horiz-adv-x="681" d="M176 1214.5q0 36.5 26.5 63.5t63.5 27t63.5 -27t26.5 -63.5t-26.5 -63.5t-63.5 -27t-63.5 27t-26.5 63.5zM500 1214.5q0 36.5 26.5 63.5t63.5 27t63.5 -27t26.5 -63.5t-26.5 -63.5t-63.5 -27t-63.5 27t-26.5 63.5z" />
<glyph unicode="&#xa9;" horiz-adv-x="1638" d="M55 727q0 317 224.5 540.5t540 223.5t539.5 -223.5t224 -540.5t-224 -540.5t-539.5 -223.5t-540 223.5t-224.5 540.5zM152 727.5q0 -276.5 195.5 -472.5t472 -196t472 196t195.5 472.5t-195.5 472t-472 195.5t-472 -195.5t-195.5 -472zM440 729q0 176 106.5 296 t282.5 120q209 0 322 -225l-96 -25q-72 166 -228 166q-121 0 -201.5 -86t-80.5 -230q0 -164 74.5 -264t197.5 -100q182 0 252 205l90 -33q-31 -115 -121 -188.5t-215 -73.5q-166 0 -274.5 125t-108.5 313z" />
<glyph unicode="&#xaa;" horiz-adv-x="661" d="M119 1059q0 143 117.5 249.5t310.5 106.5q72 0 137 -18l-90 -547h-74l6 47q-96 -59 -188 -59t-155.5 63.5t-63.5 157.5zM209 1053q0 -68 37 -112t104 -44q98 0 189 84l53 377h-51q-152 0 -242 -90t-90 -215z" />
<glyph unicode="&#xab;" d="M53 471l336 463h96l-335 -467l180 -453h-97zM514 471l336 463h96l-336 -467l181 -453h-97z" />
<glyph unicode="&#xac;" horiz-adv-x="1351" d="M166 899v90h1073v-581h-90v491h-983z" />
<glyph unicode="&#xad;" horiz-adv-x="555" d="M29 408l10 79h487l-12 -79h-485z" />
<glyph unicode="&#xae;" horiz-adv-x="1638" d="M55 727q0 317 224.5 540.5t540 223.5t539.5 -223.5t224 -540.5t-224 -540.5t-539.5 -223.5t-540 223.5t-224.5 540.5zM152 727.5q0 -276.5 195.5 -472.5t472 -196t472 196t195.5 472.5t-195.5 472t-472 195.5t-472 -195.5t-195.5 -472zM514 317v803h330q127 0 199.5 -56 t72.5 -157q0 -78 -51 -140t-168 -83q86 -51 125 -105.5t125 -261.5h-121q-106 236 -168.5 294.5t-200.5 58.5h-47v-353h-96zM610 750h133q139 0 197.5 33.5t58.5 115.5q0 80 -53 110.5t-188 30.5h-148v-290z" />
<glyph unicode="&#xaf;" horiz-adv-x="681" d="M158 1171l14 105h547l-14 -105h-547z" />
<glyph unicode="&#xb0;" horiz-adv-x="819" d="M209 1130.5q0 118.5 83 201.5t201.5 83t202.5 -83t84 -201.5t-84 -202.5t-202.5 -84t-201.5 84t-83 202.5zM291 1128q0 -84 59.5 -143t143.5 -59t144 59t60 143t-60 144.5t-144 60.5t-143.5 -60.5t-59.5 -144.5z" />
<glyph unicode="&#xb1;" horiz-adv-x="1351" d="M166 0v90h1073v-90h-1073zM166 674v90h491v491h91v-491h491v-90h-491v-492h-91v492h-491z" />
<glyph unicode="&#xb2;" horiz-adv-x="661" d="M84 680q463 416 463 565q0 51 -33 82t-90 31q-76 0 -219 -80l12 76q125 61 213 61t142.5 -46t54.5 -122q0 -80 -80 -185.5t-297 -322.5h348l-8 -59h-506z" />
<glyph unicode="&#xb3;" horiz-adv-x="661" d="M104 735l7 60q102 -59 204 -60q100 0 153.5 43t53.5 119q0 137 -186 137l6 47q117 -6 173 38t58 108q2 59 -46 95t-126 36q-80 0 -172 -51l9 65q94 43 174 43q102 0 171.5 -54t69.5 -134q0 -59 -42 -105.5t-117 -70.5q109 -53 108 -158q0 -98 -79 -160.5t-199 -62.5 q-126 -1 -220 65z" />
<glyph unicode="&#xb4;" horiz-adv-x="681" d="M356 1071l215 315h164l-311 -315h-68z" />
<glyph unicode="&#xb5;" horiz-adv-x="1138" d="M-45 -350l326 1270h90l-156 -609q-27 -106 26.5 -175.5t161.5 -69.5q178 0 298 129t173 333l103 392h90l-236 -920h-90l43 166l-4 4q-176 -188 -397 -188q-72 0 -121 22.5t-102 75.5l-115 -430h-90z" />
<glyph unicode="&#xb6;" horiz-adv-x="1331" d="M141 1047q0 193 130 306t350 113h692v-139h-197v-1735h-127v1735h-266v-1735h-131v1033q-201 -8 -326 112t-125 310z" />
<glyph unicode="&#xb7;" horiz-adv-x="575" d="M209 709q0 45 32.5 77.5t78 32.5t78 -32.5t32.5 -77.5t-32.5 -78t-78 -33t-78 33t-32.5 78z" />
<glyph unicode="&#xb8;" horiz-adv-x="681" d="M104 -348l21 65q94 -10 142 21t48 86t-84 59l56 131h63l-35 -84q33 -10 53.5 -39.5t20.5 -66.5q0 -100 -79 -145t-206 -27z" />
<glyph unicode="&#xb9;" horiz-adv-x="661" d="M303 680l127 717h78l-125 -717h-80z" />
<glyph unicode="&#xba;" horiz-adv-x="618" d="M135 1073q0 152 81 247t208 95q100 0 159.5 -62.5t59.5 -170.5q0 -145 -84 -244.5t-209 -99.5q-98 0 -156.5 63t-58.5 172zM221 1075q0 -80 34 -125t93 -45q88 0 148.5 79t60.5 196q0 80 -37 124t-100 44q-86 0 -142.5 -77t-56.5 -196z" />
<glyph unicode="&#xbb;" d="M-51 14l336 467l-181 453h97l180 -457l-336 -463h-96zM408 14l335 467l-180 453h96l181 -457l-336 -463h-96z" />
<glyph unicode="&#xbc;" horiz-adv-x="1665" d="M154 -55l1099 1470h80l-1100 -1470h-79zM303 680l127 717h78l-125 -717h-80zM850 244v26l455 467h38l-81 -446h143l-6 -47h-144l-34 -244h-78l35 244h-328zM952 291h232l53 291l-4 4z" />
<glyph unicode="&#xbd;" horiz-adv-x="1665" d="M154 -55l1099 1470h80l-1100 -1470h-79zM303 680l127 717h78l-125 -717h-80zM920 0q463 416 462 565q0 51 -32.5 82t-89.5 31q-76 0 -220 -80l13 76q125 61 213 61t142 -46t54 -122q0 -80 -79.5 -185.5t-297.5 -322.5h349l-9 -59h-505z" />
<glyph unicode="&#xbe;" horiz-adv-x="1665" d="M125 735l6 60q102 -59 205 -60q100 0 153.5 43t53.5 119q0 137 -187 137l6 47q117 -6 174.5 38t57.5 108q0 59 -47 95t-125 36q-80 0 -172 -51l8 65q94 43 174 43q102 0 172 -54t70 -134q0 -59 -42 -105.5t-118 -70.5q109 -53 109 -158q0 -98 -79 -160.5t-200 -62.5 q-125 -1 -219 65zM279 -55l1099 1470h80l-1100 -1470h-79zM975 244v26l455 467h38l-82 -446h144l-6 -47h-144l-34 -244h-78l35 244h-328zM1077 291h232l53 291l-4 4z" />
<glyph unicode="&#xbf;" horiz-adv-x="598" d="M-143 -184q0 86 43 159.5t108.5 133t134 122t126 153.5t77.5 198h51q-8 -106 -58 -201.5t-115.5 -163t-129 -130t-107.5 -132.5t-44 -141q0 -94 60 -155.5t153 -61.5q135 0 270 133l-14 -103q-121 -98 -260 -98q-123 0 -209 84t-86 203zM336 762l24 182h121l-24 -182 h-121z" />
<glyph unicode="&#xc0;" horiz-adv-x="1110" d="M-57 0l659 1415h86l322 -1415h-99l-114 504h-518l-238 -504h-98zM324 598h452l-149 645h-4zM346 1829h164l215 -316h-68z" />
<glyph unicode="&#xc1;" horiz-adv-x="1110" d="M-57 0l659 1415h86l322 -1415h-99l-114 504h-518l-238 -504h-98zM324 598h452l-149 645h-4zM608 1513l215 316h164l-311 -316h-68z" />
<glyph unicode="&#xc2;" horiz-adv-x="1110" d="M-57 0l659 1415h86l322 -1415h-99l-114 504h-518l-238 -504h-98zM324 598h452l-149 645h-4zM381 1425l369 404h114l19 -404h-74l-43 277l-305 -277h-80z" />
<glyph unicode="&#xc3;" horiz-adv-x="1110" d="M-57 0l659 1415h86l322 -1415h-99l-114 504h-518l-238 -504h-98zM324 598h452l-149 645h-4zM346 1567q-12 92 41 146t129 54q53 0 176 -49q123 -51 174 -51q41 0 60.5 20.5t25.5 71.5h64q-18 -195 -164 -194q-59 0 -186 51q-131 49 -174 49q-39 0 -59.5 -19.5 t-22.5 -78.5h-64z" />
<glyph unicode="&#xc4;" horiz-adv-x="1110" d="M-57 0l659 1415h86l322 -1415h-99l-114 504h-518l-238 -504h-98zM324 598h452l-149 645h-4zM428 1657q0 37 26.5 63.5t63.5 26.5t63.5 -26.5t26.5 -63.5t-26.5 -63.5t-63.5 -26.5t-63.5 26.5t-26.5 63.5zM752 1657q0 37 26.5 63.5t63.5 26.5t63.5 -26.5t26.5 -63.5 t-26.5 -63.5t-63.5 -26.5t-63.5 26.5t-26.5 63.5z" />
<glyph unicode="&#xc5;" horiz-adv-x="1110" d="M-57 0l659 1415h86l322 -1415h-99l-114 504h-518l-238 -504h-98zM324 598h452l-149 645h-4zM508 1654.5q0 71.5 52 124t124 52.5t124 -52.5t52 -124t-52 -123.5t-124 -52t-124 52t-52 123.5zM565 1655q0 -49 35 -84t84 -35t84 35t35 84t-35 84t-84 35t-84 -35t-35 -84z " />
<glyph unicode="&#xc6;" horiz-adv-x="1599" d="M-117 0l881 1397h797l-13 -94h-598l-78 -547h558l-13 -94h-557l-82 -568h809l-12 -94h-905l94 662h-354l-418 -662h-109zM469 756h307l78 547h-39z" />
<glyph unicode="&#xc7;" horiz-adv-x="1130" d="M82 563q0 213 111.5 407.5t321.5 319.5t468 125q96 0 176 -18l-12 -90q-98 14 -166 14q-225 0 -410.5 -111.5t-284 -282.5t-98.5 -360q0 -209 128 -350t317 -141q211 0 442 149l-16 -114q-217 -129 -445 -129l-22 -52q33 -10 53.5 -39.5t20.5 -66.5q0 -100 -79 -145.5 t-206 -26.5l20 65q94 -10 142.5 21t48.5 86t-84 59l45 107q-190 31 -330.5 183t-140.5 390z" />
<glyph unicode="&#xc8;" horiz-adv-x="1087" d="M92 0l197 1397h712l-12 -94h-616l-78 -541h584l-15 -94h-581l-82 -574h825l-12 -94h-922zM369 1829h163l216 -316h-68z" />
<glyph unicode="&#xc9;" horiz-adv-x="1087" d="M92 0l197 1397h712l-12 -94h-616l-78 -541h584l-15 -94h-581l-82 -574h825l-12 -94h-922zM631 1513l215 316h164l-312 -316h-67z" />
<glyph unicode="&#xca;" horiz-adv-x="1087" d="M92 0l197 1397h712l-12 -94h-616l-78 -541h584l-15 -94h-581l-82 -574h825l-12 -94h-922zM403 1425l369 404h115l18 -404h-74l-43 277l-305 -277h-80z" />
<glyph unicode="&#xcb;" horiz-adv-x="1087" d="M92 0l197 1397h712l-12 -94h-616l-78 -541h584l-15 -94h-581l-82 -574h825l-12 -94h-922zM451 1657q0 37 26.5 63.5t63.5 26.5t63.5 -26.5t26.5 -63.5t-26.5 -63.5t-63.5 -26.5t-63.5 26.5t-26.5 63.5zM774 1657q0 37 26.5 63.5t63.5 26.5t63.5 -26.5t26.5 -63.5 t-26.5 -63.5t-63.5 -26.5t-63.5 26.5t-26.5 63.5z" />
<glyph unicode="&#xcc;" horiz-adv-x="405" d="M27 1829h163l216 -316h-68zM82 0l197 1397h96l-197 -1397h-96z" />
<glyph unicode="&#xcd;" horiz-adv-x="405" d="M82 0l197 1397h96l-197 -1397h-96zM289 1513l215 316h164l-312 -316h-67z" />
<glyph unicode="&#xce;" horiz-adv-x="405" d="M61 1425l369 404h115l18 -404h-74l-43 277l-305 -277h-80zM82 0l197 1397h96l-197 -1397h-96z" />
<glyph unicode="&#xcf;" horiz-adv-x="405" d="M82 0l197 1397h96l-197 -1397h-96zM109 1657q0 37 26.5 63.5t63.5 26.5t63.5 -26.5t26.5 -63.5t-26.5 -63.5t-63.5 -26.5t-63.5 26.5t-26.5 63.5zM432 1657q0 37 26.5 63.5t63.5 26.5t63.5 -26.5t26.5 -63.5t-26.5 -63.5t-63.5 -26.5t-63.5 26.5t-26.5 63.5z" />
<glyph unicode="&#xd0;" horiz-adv-x="1343" d="M10 655l13 90h167l91 652h256q193 0 360 -92q166 -88 260 -253t94 -366q0 -227 -114.5 -395t-319.5 -240q-137 -51 -346 -51h-385l90 655h-166zM195 90h223q166 0 267 20.5t189 71.5q129 76 201 208t72 292q0 281 -183.5 453t-482.5 172h-116l-78 -562h372l-14 -90h-373z " />
<glyph unicode="&#xd1;" horiz-adv-x="1409" d="M92 0l197 1397h55l756 -1196l168 1196h96l-199 -1409h-43l-766 1204l-168 -1192h-96zM530 1567q-12 92 41.5 146t128.5 54q53 0 177 -49q123 -51 174 -51q41 0 60 20.5t26 71.5h63q-18 -195 -164 -194q-59 0 -186 51q-131 49 -174 49q-39 0 -59.5 -19.5t-22.5 -78.5h-64z " />
<glyph unicode="&#xd2;" horiz-adv-x="1343" d="M117 561q0 104 21.5 217t73.5 227.5t126 204.5t189.5 147.5t254.5 57.5q225 0 356.5 -151.5t131.5 -413.5q0 -358 -186.5 -613t-473.5 -255q-238 0 -365.5 152.5t-127.5 426.5zM223 530q0 -217 102.5 -335.5t286.5 -118.5q254 0 402.5 232.5t148.5 563.5 q0 207 -102.5 328t-278.5 121q-123 0 -223 -56.5t-160.5 -141.5t-101.5 -194.5t-57.5 -209t-16.5 -189.5zM498 1829h164l215 -316h-68z" />
<glyph unicode="&#xd3;" horiz-adv-x="1343" d="M117 561q0 104 21.5 217t73.5 227.5t126 204.5t189.5 147.5t254.5 57.5q225 0 356.5 -151.5t131.5 -413.5q0 -358 -186.5 -613t-473.5 -255q-238 0 -365.5 152.5t-127.5 426.5zM223 530q0 -217 102.5 -335.5t286.5 -118.5q254 0 402.5 232.5t148.5 563.5 q0 207 -102.5 328t-278.5 121q-123 0 -223 -56.5t-160.5 -141.5t-101.5 -194.5t-57.5 -209t-16.5 -189.5zM760 1513l215 316h164l-312 -316h-67z" />
<glyph unicode="&#xd4;" horiz-adv-x="1343" d="M117 561q0 104 21.5 217t73.5 227.5t126 204.5t189.5 147.5t254.5 57.5q225 0 356.5 -151.5t131.5 -413.5q0 -358 -186.5 -613t-473.5 -255q-238 0 -365.5 152.5t-127.5 426.5zM223 530q0 -217 102.5 -335.5t286.5 -118.5q254 0 402.5 232.5t148.5 563.5 q0 207 -102.5 328t-278.5 121q-123 0 -223 -56.5t-160.5 -141.5t-101.5 -194.5t-57.5 -209t-16.5 -189.5zM532 1425l369 404h115l18 -404h-73l-43 277l-306 -277h-80z" />
<glyph unicode="&#xd5;" horiz-adv-x="1343" d="M117 561q0 104 21.5 217t73.5 227.5t126 204.5t189.5 147.5t254.5 57.5q225 0 356.5 -151.5t131.5 -413.5q0 -358 -186.5 -613t-473.5 -255q-238 0 -365.5 152.5t-127.5 426.5zM223 530q0 -217 102.5 -335.5t286.5 -118.5q254 0 402.5 232.5t148.5 563.5 q0 207 -102.5 328t-278.5 121q-123 0 -223 -56.5t-160.5 -141.5t-101.5 -194.5t-57.5 -209t-16.5 -189.5zM498 1567q-12 92 41 146t129 54q53 0 176 -49q123 -51 174 -51q41 0 60.5 20.5t25.5 71.5h63q-18 -195 -163 -194q-59 0 -187 51q-131 49 -174 49q-39 0 -59.5 -19.5 t-22.5 -78.5h-63z" />
<glyph unicode="&#xd6;" horiz-adv-x="1343" d="M117 561q0 104 21.5 217t73.5 227.5t126 204.5t189.5 147.5t254.5 57.5q225 0 356.5 -151.5t131.5 -413.5q0 -358 -186.5 -613t-473.5 -255q-238 0 -365.5 152.5t-127.5 426.5zM223 530q0 -217 102.5 -335.5t286.5 -118.5q254 0 402.5 232.5t148.5 563.5 q0 207 -102.5 328t-278.5 121q-123 0 -223 -56.5t-160.5 -141.5t-101.5 -194.5t-57.5 -209t-16.5 -189.5zM580 1657q0 37 26.5 63.5t63.5 26.5t63.5 -26.5t26.5 -63.5t-26.5 -63.5t-63.5 -26.5t-63.5 26.5t-26.5 63.5zM903 1657q0 37 26.5 63.5t63.5 26.5t63.5 -26.5 t26.5 -63.5t-26.5 -63.5t-63.5 -26.5t-63.5 26.5t-26.5 63.5z" />
<glyph unicode="&#xd7;" horiz-adv-x="1351" d="M291 375l346 346l-346 346l65 66l346 -347l347 347l65 -66l-346 -346l346 -346l-65 -66l-347 346l-346 -346z" />
<glyph unicode="&#xd8;" horiz-adv-x="1343" d="M117 561q0 104 21.5 217t73.5 227.5t126 204.5t189.5 147.5t254.5 57.5q88 0 168 -26.5t117 -61.5l68 105l53 -35l-70 -109q152 -158 152 -438q0 -358 -186.5 -613t-473.5 -255q-150 0 -282 75l-82 -127l-60 37l88 135q-68 59 -112.5 177t-44.5 282zM223 530 q0 -215 107 -340l684 1055q-94 76 -232 76q-123 0 -223 -56.5t-160.5 -141.5t-101.5 -194.5t-57.5 -209t-16.5 -189.5zM385 145q86 -70 227 -69q254 0 402.5 232.5t148.5 563.5q0 207 -102 326z" />
<glyph unicode="&#xd9;" horiz-adv-x="1300" d="M133 502l127 895h96l-125 -881q-31 -217 81 -328.5t288 -111.5q203 0 318.5 127t140.5 299l129 895h96l-129 -903q-18 -133 -75.5 -234.5t-138.5 -161t-171 -88t-186 -28.5q-209 0 -346.5 145.5t-104.5 374.5zM475 1829h164l215 -316h-68z" />
<glyph unicode="&#xda;" horiz-adv-x="1300" d="M133 502l127 895h96l-125 -881q-31 -217 81 -328.5t288 -111.5q203 0 318.5 127t140.5 299l129 895h96l-129 -903q-18 -133 -75.5 -234.5t-138.5 -161t-171 -88t-186 -28.5q-209 0 -346.5 145.5t-104.5 374.5zM737 1513l215 316h164l-311 -316h-68z" />
<glyph unicode="&#xdb;" horiz-adv-x="1300" d="M133 502l127 895h96l-125 -881q-31 -217 81 -328.5t288 -111.5q203 0 318.5 127t140.5 299l129 895h96l-129 -903q-18 -133 -75.5 -234.5t-138.5 -161t-171 -88t-186 -28.5q-209 0 -346.5 145.5t-104.5 374.5zM510 1425l369 404h114l19 -404h-74l-43 277l-305 -277h-80z " />
<glyph unicode="&#xdc;" horiz-adv-x="1300" d="M133 502l127 895h96l-125 -881q-31 -217 81 -328.5t288 -111.5q203 0 318.5 127t140.5 299l129 895h96l-129 -903q-18 -133 -75.5 -234.5t-138.5 -161t-171 -88t-186 -28.5q-209 0 -346.5 145.5t-104.5 374.5zM557 1657q0 37 26.5 63.5t63.5 26.5t63.5 -26.5t26.5 -63.5 t-26.5 -63.5t-63.5 -26.5t-63.5 26.5t-26.5 63.5zM881 1657q0 37 26.5 63.5t63.5 26.5t63.5 -26.5t26.5 -63.5t-26.5 -63.5t-63.5 -26.5t-63.5 26.5t-26.5 63.5z" />
<glyph unicode="&#xdd;" horiz-adv-x="980" d="M152 1397h104l305 -578l443 578h116l-522 -674l-100 -723h-97l101 723zM578 1513l215 316h163l-311 -316h-67z" />
<glyph unicode="&#xde;" horiz-adv-x="960" d="M74 0l196 1397h107l-43 -314h129q164 0 252 -47q84 -45 133 -131t49 -192q0 -127 -63.5 -222.5t-174.5 -138.5q-102 -39 -264 -39h-170l-45 -313h-106zM238 403h155q154 0 238 39q76 35 118 104.5t42 160.5q0 94 -45.5 165.5t-122.5 100.5q-59 20 -174 20h-130z" />
<glyph unicode="&#xdf;" horiz-adv-x="960" d="M53 0l150 1057q20 150 117.5 254t259.5 104q86 0 153.5 -32.5t103 -84t53 -102.5t17.5 -98q0 -111 -67.5 -195t-177.5 -112v-5q205 -84 204 -325q0 -205 -116.5 -342t-292.5 -137q-57 0 -113 18l10 82q33 -16 95 -16q139 0 230 108.5t91 274.5q0 125 -74.5 212t-212.5 95 l11 80q141 -10 229 70.5t88 193.5q0 96 -70.5 163.5t-169.5 67.5q-111 0 -187.5 -83t-96.5 -226l-144 -1022h-90z" />
<glyph unicode="&#xe0;" horiz-adv-x="980" d="M66 350q0 109 43 213.5t121.5 188.5t206.5 135t282 51q111 0 188 -18l-129 -920h-90l14 109q-141 -127 -315 -127q-139 0 -230 104t-91 264zM162 338q0 -127 65.5 -204t173.5 -77q154 0 316 156l92 645q-49 12 -113 12q-217 0 -375.5 -149.5t-158.5 -382.5zM244 1386h164 l215 -315h-68z" />
<glyph unicode="&#xe1;" horiz-adv-x="980" d="M66 350q0 109 43 213.5t121.5 188.5t206.5 135t282 51q111 0 188 -18l-129 -920h-90l14 109q-141 -127 -315 -127q-139 0 -230 104t-91 264zM162 338q0 -127 65.5 -204t173.5 -77q154 0 316 156l92 645q-49 12 -113 12q-217 0 -375.5 -149.5t-158.5 -382.5zM506 1071 l215 315h164l-312 -315h-67z" />
<glyph unicode="&#xe2;" horiz-adv-x="980" d="M66 350q0 109 43 213.5t121.5 188.5t206.5 135t282 51q111 0 188 -18l-129 -920h-90l14 109q-141 -127 -315 -127q-139 0 -230 104t-91 264zM162 338q0 -127 65.5 -204t173.5 -77q154 0 316 156l92 645q-49 12 -113 12q-217 0 -375.5 -149.5t-158.5 -382.5zM319 983 l369 403h115l18 -403h-73l-43 277l-306 -277h-80z" />
<glyph unicode="&#xe3;" horiz-adv-x="980" d="M66 350q0 109 43 213.5t121.5 188.5t206.5 135t282 51q111 0 188 -18l-129 -920h-90l14 109q-141 -127 -315 -127q-139 0 -230 104t-91 264zM162 338q0 -127 65.5 -204t173.5 -77q154 0 316 156l92 645q-49 12 -113 12q-217 0 -375.5 -149.5t-158.5 -382.5zM244 1124 q-12 92 41 146.5t129 54.5q53 0 176 -49q123 -51 174 -51q41 0 60.5 20.5t25.5 71.5h63q-18 -195 -163 -195q-59 0 -187 52q-131 49 -174 49q-39 0 -59.5 -19.5t-22.5 -79.5h-63z" />
<glyph unicode="&#xe4;" horiz-adv-x="980" d="M66 350q0 109 43 213.5t121.5 188.5t206.5 135t282 51q111 0 188 -18l-129 -920h-90l14 109q-141 -127 -315 -127q-139 0 -230 104t-91 264zM162 338q0 -127 65.5 -204t173.5 -77q154 0 316 156l92 645q-49 12 -113 12q-217 0 -375.5 -149.5t-158.5 -382.5zM367 1214.5 q0 36.5 26.5 63.5t63.5 27t63.5 -27t26.5 -63.5t-26.5 -63.5t-63.5 -27t-63.5 27t-26.5 63.5zM690 1214.5q0 36.5 26.5 63.5t63.5 27t63.5 -27t26.5 -63.5t-26.5 -63.5t-63.5 -27t-63.5 27t-26.5 63.5z" />
<glyph unicode="&#xe5;" horiz-adv-x="980" d="M66 350q0 109 43 213.5t121.5 188.5t206.5 135t282 51q111 0 188 -18l-129 -920h-90l14 109q-141 -127 -315 -127q-139 0 -230 104t-91 264zM162 338q0 -127 65.5 -204t173.5 -77q154 0 316 156l92 645q-49 12 -113 12q-217 0 -375.5 -149.5t-158.5 -382.5zM446 1212.5 q0 71.5 52.5 124t124 52.5t124 -52.5t52.5 -124t-52.5 -124t-124 -52.5t-124 52.5t-52.5 124zM504 1212.5q0 -49.5 34.5 -84t84 -34.5t84 34.5t34.5 84t-34.5 84t-84 34.5t-84 -34.5t-34.5 -84z" />
<glyph unicode="&#xe6;" horiz-adv-x="1343" d="M31 172q0 139 158.5 238.5t408.5 115.5l14 125q10 88 -31.5 145.5t-136.5 57.5q-156 0 -323 -160l-19 86q174 158 355 158q150 0 223 -145q117 145 270 145q166 0 253 -132t61 -325h-588q-29 -168 -29 -219q0 -88 63.5 -142t163.5 -54q164 0 336 127l-14 -105 q-59 -43 -151.5 -74.5t-161.5 -31.5q-96 0 -180.5 50t-110.5 124q-74 -76 -174.5 -125t-181.5 -49q-90 0 -147.5 54t-57.5 136zM117 174q0 -45 36.5 -76.5t90.5 -31.5q131 0 309 149l33 238q-199 -20 -334 -93t-135 -186zM684 561h498q14 125 -50.5 209t-175.5 84 q-104 0 -176.5 -74t-95.5 -219z" />
<glyph unicode="&#xe7;" horiz-adv-x="788" d="M53 391q0 96 34 190.5t98.5 175.5t172 131t240.5 50q88 0 180 -18l-14 -99q-100 27 -174 27q-143 0 -246.5 -73t-148.5 -176t-45 -218q0 -143 84.5 -229t224.5 -86q90 0 262 75l-14 -96q-129 -63 -277 -63l-22 -52q33 -10 53 -39.5t20 -66.5q0 -100 -78.5 -145.5 t-205.5 -26.5l20 65q94 -10 142.5 21t48.5 86t-84 59l45 105q-143 23 -229.5 131t-86.5 272z" />
<glyph unicode="&#xe8;" d="M78 424q0 217 123 365.5t303 148.5q150 0 238.5 -104.5t88.5 -284.5q0 -29 -4 -70h-649q-4 -37 -4 -59q0 -137 82 -245.5t231 -108.5q147 0 287 114v-96q-133 -102 -289 -102q-184 0 -295.5 120.5t-111.5 321.5zM193 559h548q6 139 -60.5 217t-178.5 78q-109 0 -200 -87 t-109 -208zM213 1386h164l215 -315h-68z" />
<glyph unicode="&#xe9;" d="M78 424q0 217 123 365.5t303 148.5q150 0 238.5 -104.5t88.5 -284.5q0 -29 -4 -70h-649q-4 -37 -4 -59q0 -137 82 -245.5t231 -108.5q147 0 287 114v-96q-133 -102 -289 -102q-184 0 -295.5 120.5t-111.5 321.5zM193 559h548q6 139 -60.5 217t-178.5 78q-109 0 -200 -87 t-109 -208zM475 1071l215 315h164l-311 -315h-68z" />
<glyph unicode="&#xea;" d="M78 424q0 217 123 365.5t303 148.5q150 0 238.5 -104.5t88.5 -284.5q0 -29 -4 -70h-649q-4 -37 -4 -59q0 -137 82 -245.5t231 -108.5q147 0 287 114v-96q-133 -102 -289 -102q-184 0 -295.5 120.5t-111.5 321.5zM193 559h548q6 139 -60.5 217t-178.5 78q-109 0 -200 -87 t-109 -208zM248 983l368 403h115l19 -403h-74l-43 277l-305 -277h-80z" />
<glyph unicode="&#xeb;" d="M78 424q0 217 123 365.5t303 148.5q150 0 238.5 -104.5t88.5 -284.5q0 -29 -4 -70h-649q-4 -37 -4 -59q0 -137 82 -245.5t231 -108.5q147 0 287 114v-96q-133 -102 -289 -102q-184 0 -295.5 120.5t-111.5 321.5zM193 559h548q6 139 -60.5 217t-178.5 78q-109 0 -200 -87 t-109 -208zM295 1214.5q0 36.5 26.5 63.5t63.5 27t63.5 -27t26.5 -63.5t-26.5 -63.5t-63.5 -27t-63.5 27t-26.5 63.5zM618 1214.5q0 36.5 27 63.5t63.5 27t63.5 -27t27 -63.5t-27 -63.5t-63.5 -27t-63.5 27t-27 63.5z" />
<glyph unicode="&#xec;" horiz-adv-x="362" d="M-66 1386h164l215 -315h-67zM63 0l130 920h90l-129 -920h-91z" />
<glyph unicode="&#xed;" horiz-adv-x="362" d="M63 0l130 920h90l-129 -920h-91zM197 1071l215 315h163l-311 -315h-67z" />
<glyph unicode="&#xee;" horiz-adv-x="362" d="M-31 983l369 403h115l18 -403h-74l-43 277l-305 -277h-80zM63 0l130 920h90l-129 -920h-91z" />
<glyph unicode="&#xef;" horiz-adv-x="362" d="M16 1214.5q0 36.5 27 63.5t63.5 27t63.5 -27t27 -63.5t-27 -63.5t-63.5 -27t-63.5 27t-27 63.5zM63 0l130 920h90l-129 -920h-91zM340 1214.5q0 36.5 26.5 63.5t63.5 27t63.5 -27t26.5 -63.5t-26.5 -63.5t-63.5 -27t-63.5 27t-26.5 63.5z" />
<glyph unicode="&#xf0;" d="M80 369q0 250 121 409.5t311 159.5q170 0 256 -158l4 4q-18 250 -135 406l-211 -109l-39 70l197 102q-41 45 -90 82l59 62q70 -53 111 -103l200 103l39 -70l-186 -96q143 -201 143 -541q0 -307 -124 -507.5t-339 -200.5q-133 0 -225 100.5t-92 286.5zM176 367 q0 -139 58.5 -220t158.5 -81q137 0 241.5 137t104.5 350q0 135 -61.5 218t-169.5 83q-156 0 -244 -144t-88 -343z" />
<glyph unicode="&#xf1;" horiz-adv-x="937" d="M55 0l129 920h90l-20 -152l4 -4q174 174 350 174q115 0 179.5 -90t48.5 -217l-88 -631h-91l86 618q16 117 -29.5 176.5t-129.5 59.5q-152 0 -346 -201l-93 -653h-90zM223 1124q-12 92 41 146.5t129 54.5q53 0 176 -49q123 -51 174 -51q41 0 60.5 20.5t25.5 71.5h64 q-18 -195 -164 -195q-59 0 -186 52q-131 49 -174 49q-39 0 -59.5 -19.5t-22.5 -79.5h-64z" />
<glyph unicode="&#xf2;" d="M74 369q0 250 120.5 409.5t311.5 159.5q150 0 236.5 -104.5t86.5 -280.5q0 -262 -132 -416.5t-306 -154.5q-133 0 -225 100.5t-92 286.5zM170 367q0 -139 58.5 -220t158.5 -81q143 0 244.5 142t101.5 345q0 137 -62.5 219t-169 82t-183 -72.5t-112.5 -180t-36 -234.5z M213 1386h164l215 -315h-68z" />
<glyph unicode="&#xf3;" d="M74 369q0 250 120.5 409.5t311.5 159.5q150 0 236.5 -104.5t86.5 -280.5q0 -262 -132 -416.5t-306 -154.5q-133 0 -225 100.5t-92 286.5zM170 367q0 -139 58.5 -220t158.5 -81q143 0 244.5 142t101.5 345q0 137 -62.5 219t-169 82t-183 -72.5t-112.5 -180t-36 -234.5z M475 1071l215 315h164l-311 -315h-68z" />
<glyph unicode="&#xf4;" d="M74 369q0 250 120.5 409.5t311.5 159.5q150 0 236.5 -104.5t86.5 -280.5q0 -262 -132 -416.5t-306 -154.5q-133 0 -225 100.5t-92 286.5zM170 367q0 -139 58.5 -220t158.5 -81q143 0 244.5 142t101.5 345q0 137 -62.5 219t-169 82t-183 -72.5t-112.5 -180t-36 -234.5z M248 983l368 403h115l19 -403h-74l-43 277l-305 -277h-80z" />
<glyph unicode="&#xf5;" d="M74 369q0 250 120.5 409.5t311.5 159.5q150 0 236.5 -104.5t86.5 -280.5q0 -262 -132 -416.5t-306 -154.5q-133 0 -225 100.5t-92 286.5zM170 367q0 -139 58.5 -220t158.5 -81q143 0 244.5 142t101.5 345q0 137 -62.5 219t-169 82t-183 -72.5t-112.5 -180t-36 -234.5z M213 1124q-12 92 41 146.5t129 54.5q53 0 176 -49q123 -51 174 -51q41 0 60.5 20.5t25.5 71.5h64q-18 -195 -164 -195q-59 0 -187 52q-131 49 -174 49q-39 0 -59 -19.5t-23 -79.5h-63z" />
<glyph unicode="&#xf6;" d="M74 369q0 250 120.5 409.5t311.5 159.5q150 0 236.5 -104.5t86.5 -280.5q0 -262 -132 -416.5t-306 -154.5q-133 0 -225 100.5t-92 286.5zM170 367q0 -139 58.5 -220t158.5 -81q143 0 244.5 142t101.5 345q0 137 -62.5 219t-169 82t-183 -72.5t-112.5 -180t-36 -234.5z M295 1214.5q0 36.5 26.5 63.5t63.5 27t63.5 -27t26.5 -63.5t-26.5 -63.5t-63.5 -27t-63.5 27t-26.5 63.5zM618 1214.5q0 36.5 27 63.5t63.5 27t63.5 -27t27 -63.5t-27 -63.5t-63.5 -27t-63.5 27t-27 63.5z" />
<glyph unicode="&#xf7;" horiz-adv-x="1351" d="M166 674v90h1073v-90h-1073zM623 379q0 35 22.5 57.5t57 22.5t57 -22.5t22.5 -57.5t-22.5 -57.5t-57 -22.5t-57 22.5t-22.5 57.5zM623 1059q0 35 22.5 57.5t57 22.5t57 -22.5t22.5 -57.5t-22.5 -57.5t-57 -22.5t-57 22.5t-22.5 57.5z" />
<glyph unicode="&#xf8;" d="M70 -63l94 145q-90 113 -90 287q0 250 120.5 409.5t311.5 159.5q100 0 176 -49l84 131l63 -43l-90 -141q90 -102 90 -283q0 -262 -132 -416.5t-306 -154.5q-76 0 -170 49l-86 -133zM170 367q0 -127 47 -201l416 647q-66 41 -131 41q-106 0 -183 -72.5t-113 -180 t-36 -234.5zM268 102q63 -37 119 -36q143 0 244.5 142t101.5 345q0 121 -49 199z" />
<glyph unicode="&#xf9;" horiz-adv-x="937" d="M90 260l92 660h90l-92 -656q-12 -90 32 -144t130 -54q156 0 348 219l88 635h90l-129 -920h-90l25 162l-4 4q-172 -184 -357 -184q-100 0 -170.5 72.5t-52.5 205.5zM223 1386h164l215 -315h-67z" />
<glyph unicode="&#xfa;" horiz-adv-x="937" d="M90 260l92 660h90l-92 -656q-12 -90 32 -144t130 -54q156 0 348 219l88 635h90l-129 -920h-90l25 162l-4 4q-172 -184 -357 -184q-100 0 -170.5 72.5t-52.5 205.5zM485 1071l215 315h164l-311 -315h-68z" />
<glyph unicode="&#xfb;" horiz-adv-x="937" d="M90 260l92 660h90l-92 -656q-12 -90 32 -144t130 -54q156 0 348 219l88 635h90l-129 -920h-90l25 162l-4 4q-172 -184 -357 -184q-100 0 -170.5 72.5t-52.5 205.5zM258 983l369 403h114l19 -403h-74l-43 277l-305 -277h-80z" />
<glyph unicode="&#xfc;" horiz-adv-x="937" d="M90 260l92 660h90l-92 -656q-12 -90 32 -144t130 -54q156 0 348 219l88 635h90l-129 -920h-90l25 162l-4 4q-172 -184 -357 -184q-100 0 -170.5 72.5t-52.5 205.5zM305 1214.5q0 36.5 26.5 63.5t63.5 27t63.5 -27t26.5 -63.5t-26.5 -63.5t-63.5 -27t-63.5 27t-26.5 63.5z M629 1214.5q0 36.5 26.5 63.5t63.5 27t63.5 -27t26.5 -63.5t-26.5 -63.5t-63.5 -27t-63.5 27t-26.5 63.5z" />
<glyph unicode="&#xfd;" horiz-adv-x="768" d="M-16 -471l256 483l-174 908h90l145 -785h4l410 785h96l-727 -1391h-100zM399 1071l215 315h164l-311 -315h-68z" />
<glyph unicode="&#xfe;" horiz-adv-x="1024" d="M53 -453l260 1850h90l-73 -527q121 68 227 68q166 0 268.5 -115.5t102.5 -300.5q0 -94 -31 -184t-95.5 -173t-185 -133t-280.5 -50q-68 0 -129 6l-64 -441h-90zM215 55q172 -20 298 14.5t192.5 109.5t96 160t29.5 181q0 154 -80.5 244t-215.5 90q-102 0 -216 -57z" />
<glyph unicode="&#xff;" horiz-adv-x="768" d="M-16 -471l256 483l-174 908h90l145 -785h4l410 785h96l-727 -1391h-100zM219 1214.5q0 36.5 26.5 63.5t63.5 27t63.5 -27t26.5 -63.5t-26.5 -63.5t-63.5 -27t-63.5 27t-26.5 63.5zM543 1214.5q0 36.5 26.5 63.5t63.5 27t63.5 -27t26.5 -63.5t-26.5 -63.5t-63.5 -27 t-63.5 27t-26.5 63.5z" />
<glyph unicode="&#x152;" horiz-adv-x="1961" d="M90 610q0 178 70.5 336t152.5 238q119 115 264.5 167t380.5 52q23 0 59 -1t50 -1q61 -4 90 -4h766l-14 -94h-619l-78 -545h584l-12 -94h-586l-80 -570h834l-13 -94h-1167q-154 0 -274.5 39t-195.5 100.5t-124 144.5t-68.5 162.5t-19.5 163.5zM197 610q0 -240 146 -378 t417 -138h262l172 1209q-221 8 -285 6q-358 -10 -522 -193q-190 -213 -190 -506z" />
<glyph unicode="&#x153;" horiz-adv-x="1449" d="M57 367q0 231 130 401t305 170q197 0 268 -205q113 205 307 205q156 0 249 -120t56 -337h-604q-10 -84 -10 -135q0 -129 65.5 -204.5t177.5 -75.5q141 0 322 129l-14 -109q-147 -104 -316 -104q-113 0 -193.5 55t-115.5 158q-123 -213 -317 -213q-133 0 -221.5 109.5 t-88.5 275.5zM154 379q0 -141 60 -227t156.5 -86t170 77.5t108.5 196.5t35 254q0 119 -54.5 189.5t-144.5 70.5q-133 0 -232 -141t-99 -334zM780 561h514q16 121 -46 207t-170.5 86t-193 -82t-104.5 -211z" />
<glyph unicode="&#x178;" horiz-adv-x="980" d="M152 1397h104l305 -578l443 578h116l-522 -674l-100 -723h-97l101 723zM397 1657q0 37 27 63.5t63.5 26.5t63.5 -26.5t27 -63.5t-27 -63.5t-63.5 -26.5t-63.5 26.5t-27 63.5zM721 1657q0 37 26.5 63.5t63.5 26.5t63.5 -26.5t26.5 -63.5t-26.5 -63.5t-63.5 -26.5 t-63.5 26.5t-26.5 63.5z" />
<glyph unicode="&#x2c6;" horiz-adv-x="681" d="M129 983l369 403h114l19 -403h-74l-43 277l-305 -277h-80z" />
<glyph unicode="&#x2dc;" horiz-adv-x="681" d="M94 1124q-12 92 41 146.5t129 54.5q53 0 176 -49q123 -51 174 -51q41 0 60.5 20.5t25.5 71.5h64q-18 -195 -164 -195q-59 0 -186 52q-131 49 -174 49q-39 0 -59.5 -19.5t-22.5 -79.5h-64z" />
<glyph unicode="&#x2000;" horiz-adv-x="915" />
<glyph unicode="&#x2001;" horiz-adv-x="1830" />
<glyph unicode="&#x2002;" horiz-adv-x="915" />
<glyph unicode="&#x2003;" horiz-adv-x="1830" />
<glyph unicode="&#x2004;" horiz-adv-x="610" />
<glyph unicode="&#x2005;" horiz-adv-x="456" />
<glyph unicode="&#x2006;" horiz-adv-x="305" />
<glyph unicode="&#x2007;" horiz-adv-x="305" />
<glyph unicode="&#x2008;" horiz-adv-x="227" />
<glyph unicode="&#x2009;" horiz-adv-x="364" />
<glyph unicode="&#x200a;" horiz-adv-x="100" />
<glyph unicode="&#x2010;" horiz-adv-x="555" d="M29 408l10 79h487l-12 -79h-485z" />
<glyph unicode="&#x2011;" horiz-adv-x="555" d="M29 408l10 79h487l-12 -79h-485z" />
<glyph unicode="&#x2012;" horiz-adv-x="555" d="M29 408l10 79h487l-12 -79h-485z" />
<glyph unicode="&#x2013;" horiz-adv-x="1024" d="M-12 483v68h1048v-68h-1048z" />
<glyph unicode="&#x2014;" horiz-adv-x="2048" d="M-12 483v68h2072v-68h-2072z" />
<glyph unicode="&#x2018;" horiz-adv-x="342" d="M182 983l23 162q12 82 62 158.5t116 93.5l-8 -60q-76 -61 -88 -172h41l-25 -182h-121z" />
<glyph unicode="&#x2019;" horiz-adv-x="342" d="M164 983l8 59q76 61 88 172h-41l25 183h121l-23 -162q-12 -82 -62 -159t-116 -93z" />
<glyph unicode="&#x201a;" horiz-adv-x="342" d="M-6 -231l8 59q76 61 88 172h-41l25 182h121l-23 -162q-12 -82 -62 -158.5t-116 -92.5z" />
<glyph unicode="&#x201c;" horiz-adv-x="768" d="M258 983l23 162q12 82 62 158.5t116 93.5l-8 -60q-76 -61 -89 -172h41l-24 -182h-121zM621 983l22 162q12 82 62.5 158.5t115.5 93.5l-8 -60q-76 -61 -88 -172h41l-25 -182h-120z" />
<glyph unicode="&#x201d;" horiz-adv-x="768" d="M174 983l8 59q76 61 88 172h-41l25 183h121l-23 -162q-12 -82 -62 -159t-116 -93zM539 983l8 59q76 61 88 172h-41l24 183h121l-22 -162q-12 -82 -62 -159t-116 -93z" />
<glyph unicode="&#x201e;" horiz-adv-x="768" d="M18 -231l9 59q76 61 88 172h-41l24 182h121l-22 -162q-12 -82 -62.5 -158.5t-116.5 -92.5zM383 -231l8 59q76 61 88 172h-41l25 182h121l-23 -162q-12 -82 -62 -158.5t-116 -92.5z" />
<glyph unicode="&#x2022;" horiz-adv-x="1024" d="M293 698.5q0 102.5 73.5 176t176 73.5t176.5 -73.5t74 -176t-74 -176t-176.5 -73.5t-176 73.5t-73.5 176z" />
<glyph unicode="&#x2026;" horiz-adv-x="2048" d="M201 0v199h133v-199h-133zM883 0v199h133v-199h-133zM1565 0v199h133v-199h-133z" />
<glyph unicode="&#x202f;" horiz-adv-x="364" />
<glyph unicode="&#x2039;" horiz-adv-x="468" d="M12 471l336 463h96l-335 -467l180 -453h-96z" />
<glyph unicode="&#x203a;" horiz-adv-x="468" d="M-23 14l336 467l-180 453h96l181 -457l-336 -463h-97z" />
<glyph unicode="&#x205f;" horiz-adv-x="456" />
<glyph unicode="&#x20ac;" horiz-adv-x="1030" d="M37 541l18 92h103q6 70 20 135h-141l18 92h150q90 272 274.5 413.5t390.5 141.5q74 0 189 -29l-23 -90q-84 27 -166 27q-186 0 -336.5 -131t-224.5 -332h627l-18 -92h-637q-14 -55 -21 -135h627l-19 -92h-612q8 -223 103.5 -345t228.5 -122q186 0 356 127l-14 -115 q-184 -104 -348 -104q-172 0 -297 146t-131 413h-117z" />
<glyph unicode="&#x2122;" horiz-adv-x="1925" d="M205 1378v84h635v-84h-265v-729h-104v729h-266zM934 649v813h153l203 -649h4l213 649h154v-813h-92v729h-4l-240 -729h-70l-225 729h-4v-729h-92z" />
<glyph unicode="&#xe000;" horiz-adv-x="920" d="M0 920h920v-920h-920v920z" />
<glyph unicode="&#xfb01;" horiz-adv-x="960" d="M66 -408l176 1260h-168l8 68h170l18 116q18 125 64.5 206t117 119t150.5 48t186 2l-12 -78q-88 25 -176 8.5t-141 -69.5q-76 -76 -103 -250l-16 -102h270l-10 -68h-268l-176 -1260h-90zM657 0l129 920h91l-129 -920h-91z" />
<glyph unicode="&#xfb02;" horiz-adv-x="960" d="M74 -408l176 1260h-170l8 68h166l14 84q20 129 44 192.5t75 114.5q129 129 383 100l-10 -72q-184 35 -299 -65q-45 -41 -65.5 -101.5t-37.5 -171.5l-12 -81h248l-10 -68h-244l-176 -1260h-90zM655 0l207 1397h90l-207 -1397h-90z" />
<glyph unicode="&#xfb03;" horiz-adv-x="1386" d="M1087 0l130 920h90l-129 -920h-91zM1247 1165l23 152h90l-23 -152h-90zM569 852l11 68h184l16 120q23 174 120 274.5t251 100.5q119 0 227 -57l-10 -76q-113 57 -211 57q-236 0 -276 -252l-27 -167h217l-10 -68h-217l-176 -1260h-90l176 1260h-185zM57 852l11 68h184 l16 120q23 174 120 274.5t251 100.5q119 0 227 -57l-10 -76q-113 57 -211 57q-236 0 -276 -252l-27 -167h217l-10 -68h-217l-176 -1260h-90l176 1260h-185z" />
<glyph unicode="&#xfb04;" horiz-adv-x="1386" d="M1083 0l197 1397h90l-196 -1397h-91zM569 852l11 68h184l16 120q23 174 120 274.5t251 100.5q119 0 227 -57l-10 -76q-113 57 -211 57q-236 0 -276 -252l-27 -167h217l-10 -68h-217l-176 -1260h-90l176 1260h-185zM57 852l11 68h184l16 120q23 174 120 274.5t251 100.5 q119 0 227 -57l-10 -76q-113 57 -211 57q-236 0 -276 -252l-27 -167h217l-10 -68h-217l-176 -1260h-90l176 1260h-185z" />
</font>
</defs>
</svg>
