<?xml version="1.0" standalone="no"?>
<!DOCTYPE svg PUBLIC "-//W3C//DTD SVG 1.1//EN" "http://www.w3.org/Graphics/SVG/1.1/DTD/svg11.dtd" >
<svg xmlns="http://www.w3.org/2000/svg">
<metadata>
This is a custom SVG webfont generated by Font Squirrel.
Copyright   :  1990 1991 1998 2002 Adobe Systems Incorporated All rights reserved  1989 1990 1998 2002 The Monotype Corporation PLC All rights reserved
Designer    : Eric Gill
Foundry URL : httpwwwadobecomtype
</metadata>
<defs>
<font id="GillSansStdBold" horiz-adv-x="681" >
<font-face units-per-em="2048" ascent="1397" descent="-651" />
<missing-glyph horiz-adv-x="569" />
<glyph unicode=" "  horiz-adv-x="569" />
<glyph unicode="&#x09;" horiz-adv-x="569" />
<glyph unicode="&#xa0;" horiz-adv-x="569" />
<glyph unicode="!" horiz-adv-x="555" d="M100 159.5q0 73.5 52.5 126t126 52.5t126 -52.5t52.5 -126t-52.5 -125.5t-126 -52t-126 52t-52.5 125.5zM106 1194q0 106 45.5 163.5t127 57.5t126 -57.5t44.5 -163.5q0 -115 -40 -367t-63 -331q-14 -49 -25.5 -61.5t-41.5 -12.5q-33 0 -45.5 15.5t-26.5 70.5 q-101 420 -101 686z" />
<glyph unicode="&#x22;" horiz-adv-x="980" d="M109 1219v247h276v-247l-49 -275h-178zM596 1219v247h276v-247l-49 -275h-178z" />
<glyph unicode="#" horiz-adv-x="1196" d="M-12 311v224h194l56 268h-250v223h297l77 371h232l-78 -371h315l78 371h228l-78 -371h151v-223h-196l-56 -268h252v-224h-301l-78 -370h-227l76 370h-313l-76 -370h-234l78 370h-147zM414 535h313l55 268h-313z" />
<glyph unicode="$" horiz-adv-x="1110" d="M92 977q0 143 103.5 244.5t269.5 119.5v74h172v-74q147 -6 319 -104v-252q-147 109 -319 135v-332q188 -57 289.5 -170.5t101.5 -244.5q0 -152 -103.5 -255.5t-287.5 -135.5v-226h-172v226q-74 8 -183.5 52t-175.5 89v242q186 -141 359 -172v393q-195 45 -284 148.5 t-89 242.5zM328 989q0 -96 137 -139v270q-63 -14 -100 -49t-37 -82zM637 197q72 14 115 58t43 103q0 119 -158 174v-335z" />
<glyph unicode="%" horiz-adv-x="1472" d="M49 1085q0 137 96.5 233.5t233.5 96.5t233.5 -96t96.5 -234q0 -135 -96.5 -232t-233.5 -97t-233.5 97t-96.5 232zM160 -16l983 1431h164l-977 -1431h-170zM233 1085q0 -61 43 -107t103 -46q61 0 103 44t42 109q0 63 -43 108.5t-102 45.5q-61 0 -103.5 -44t-42.5 -110z M762 311q0 137 96 233.5t233.5 96.5t233.5 -96t96 -234q0 -135 -96 -232t-233.5 -97t-233.5 97t-96 232zM946 311q0 -61 43 -107t103 -46q61 0 103 44t42 109q0 63 -43 108.5t-102 45.5q-61 0 -103.5 -44t-42.5 -110z" />
<glyph unicode="&#x26;" horiz-adv-x="1536" d="M80 350q0 233 313 395q-68 94 -97.5 162t-29.5 148q0 156 121 258t307 102q178 0 291 -93t113 -239q0 -205 -260 -358l190 -219q90 90 160 219h299q-119 -274 -281 -418l281 -307h-424l-102 111q-205 -129 -439 -129q-190 0 -316 105t-126 263zM408 377q0 -68 52 -116 t124 -48q102 0 215 78l-248 274q-143 -92 -143 -188zM567 1077q0 -82 119 -186q139 82 139 176q0 51 -35.5 84t-93 33t-93.5 -30t-36 -77z" />
<glyph unicode="'" horiz-adv-x="491" d="M109 1219v247h276v-247l-49 -275h-178z" />
<glyph unicode="(" horiz-adv-x="788" d="M92 473q0 264 130 520t343 422h211q-199 -219 -281.5 -449.5t-82.5 -492.5q0 -260 83 -489.5t281 -454.5h-211q-215 170 -344 424t-129 520z" />
<glyph unicode=")" horiz-adv-x="788" d="M12 -471q199 225 282 454.5t83 489.5q0 262 -83 492.5t-282 449.5h211q213 -166 343 -422t130 -520t-129 -517t-344 -427h-211z" />
<glyph unicode="*" horiz-adv-x="960" d="M61 1130l62 117q14 27 23.5 33t28 -3t50.5 -42l203 -209l25 23l-91 290q-25 76 58 76h119q45 0 58 -17.5t1 -58.5l-90 -290l24 -23l203 209q45 45 61.5 47t41.5 -41l51 -92q45 -82 -25 -100l-311 -70v-4l311 -68q74 -16 29 -94l-53 -96q-16 -29 -27.5 -38t-25 -3 t-35.5 29l-220 225l-24 -23l90 -291q23 -76 -53 -75h-125q-41 0 -55.5 16t-2.5 59l91 291l-25 23l-203 -209q-41 -41 -60.5 -45t-41.5 33l-57 108q-39 74 30 90l312 68v4l-312 70q-68 15 -35 81z" />
<glyph unicode="+" horiz-adv-x="1196" d="M86 592v262h381v381h262v-381h381v-262h-381v-381h-262v381h-381z" />
<glyph unicode="," horiz-adv-x="555" d="M90 131q0 70 48 116t120 46q90 0 147.5 -65.5t57.5 -168.5q0 -154 -105.5 -272.5t-255.5 -132.5v63q45 41 73 117t20 148q-105 40 -105 149z" />
<glyph unicode="-" d="M74 338v272h534v-272h-534z" />
<glyph unicode="." horiz-adv-x="555" d="M98 159.5q0 73.5 52.5 126t126 52.5t126 -52.5t52.5 -126t-52.5 -125.5t-126 -52t-126 52t-52.5 125.5z" />
<glyph unicode="/" horiz-adv-x="575" d="M0 -18l346 1433h211l-350 -1433h-207z" />
<glyph unicode="0" horiz-adv-x="1130" d="M90 698q0 346 130 531.5t347 185.5q227 0 349 -195.5t122 -514.5q0 -326 -115.5 -524.5t-351 -198.5t-358.5 194t-123 522zM401 684q0 -223 37 -331.5t129 -108.5q96 0 128 118.5t32 364.5q0 219 -35 322.5t-127 103.5q-53 0 -87 -33t-50 -101.5t-21.5 -143t-5.5 -191.5z " />
<glyph unicode="1" horiz-adv-x="1130" d="M406 0v1397h309v-1397h-309z" />
<glyph unicode="2" horiz-adv-x="1130" d="M111 0v39q184 225 389 539q152 229 151 385q0 82 -54 141t-132 59q-156 0 -336 -174v293q209 133 391 133q207 0 325 -105.5t118 -291.5q0 -252 -379 -733h450v-285h-923z" />
<glyph unicode="3" horiz-adv-x="1130" d="M119 61v271q160 -111 295 -111q96 0 157.5 51.5t61.5 133.5q0 84 -60.5 139t-156.5 57v246q90 0 141 50t51 116q0 70 -56 116t-142 46q-115 0 -256 -68v246q137 61 319 61q199 0 323 -95t124 -247q0 -211 -207 -323q246 -94 245 -359q0 -186 -135 -297.5t-362 -111.5 q-188 -1 -342 79z" />
<glyph unicode="4" horiz-adv-x="1130" d="M84 344v223l657 848h197v-848h94v-223h-94v-344h-309v344h-545zM330 567h299v381h-4z" />
<glyph unicode="5" horiz-adv-x="1130" d="M131 57v254q162 -90 297 -90q96 0 158.5 55.5t62.5 139.5q0 121 -120.5 172t-325.5 12v797h725v-281h-447v-260q227 16 360.5 -112t133.5 -318q0 -203 -137.5 -323.5t-368.5 -120.5q-88 0 -187.5 21t-150.5 54z" />
<glyph unicode="6" horiz-adv-x="1130" d="M90 477q0 240 191 547l241 391h344l-323 -528q174 47 323.5 -72t149.5 -356q0 -207 -132 -342t-331 -135q-207 0 -335 137t-128 358zM401 446q0 -96 42 -149t116 -53q72 0 115 56t43 150.5t-44 151.5t-116 57t-114 -57.5t-42 -155.5z" />
<glyph unicode="7" horiz-adv-x="1130" d="M131 1118v279h924v-17l-504 -1398l-279 106l375 1030h-516z" />
<glyph unicode="8" horiz-adv-x="1130" d="M98 397q0 242 211 340q-92 59 -132 129t-40 170q0 170 117 274.5t307 104.5q209 0 321.5 -114.5t112.5 -266.5q0 -195 -170 -297q209 -106 209 -338q0 -188 -128 -302.5t-343 -114.5q-207 0 -336 115.5t-129 299.5zM410 410q0 -100 44 -162t115 -62q70 0 112 58.5 t42 156.5q0 102 -42 163t-113.5 61t-114.5 -58.5t-43 -156.5zM436 1020q0 -90 36 -143.5t97 -53.5q59 0 93 53.5t34 147.5q0 186 -131 186q-59 0 -94 -51t-35 -139z" />
<glyph unicode="9" horiz-adv-x="1130" d="M102 932q0 207 133.5 345t332 138t329.5 -138t131 -349q0 -248 -184 -547l-246 -399h-342l322 524q-184 -51 -330 82t-146 344zM401 942q0 -94 44 -152.5t116 -58.5q68 0 112 59.5t44 149.5q0 98 -42 155.5t-114 57.5q-70 0 -115 -59.5t-45 -151.5z" />
<glyph unicode=":" horiz-adv-x="555" d="M98 159.5q0 73.5 52.5 126t126 52.5t126 -52.5t52.5 -126t-52.5 -125.5t-126 -52t-126 52t-52.5 125.5zM98 766q0 74 52.5 126t126 52t126 -52t52.5 -126t-52.5 -126t-126 -52t-126 52t-52.5 126z" />
<glyph unicode=";" horiz-adv-x="555" d="M90 131q0 70 48 116t120 46q90 0 147.5 -65.5t57.5 -168.5q0 -154 -105.5 -272.5t-255.5 -132.5v63q45 41 73 117t20 148q-105 40 -105 149zM98 766q0 74 52.5 126t126 52t126 -52t52.5 -126t-52.5 -126t-126 -52t-126 52t-52.5 126z" />
<glyph unicode="&#x3c;" horiz-adv-x="1196" d="M96 604v246l1006 436v-280l-703 -279l703 -278v-281z" />
<glyph unicode="=" horiz-adv-x="1196" d="M86 369v262h1024v-262h-1024zM86 815v262h1024v-262h-1024z" />
<glyph unicode="&#x3e;" horiz-adv-x="1196" d="M94 168v281l703 278l-703 279v280l1006 -436v-246z" />
<glyph unicode="?" horiz-adv-x="768" d="M51 1122l51 252q121 41 238 41q158 0 248 -77.5t90 -209.5q0 -86 -31 -162.5t-75 -133t-87 -109.5t-73.5 -115.5t-30.5 -130.5v-24q0 -23 -12.5 -28t-51.5 -5q-37 0 -53 16q-14 14 -35.5 85t-21.5 128q0 86 40 169t80 152.5t40 119t-32 77t-89 27.5q-51 0 -87 -14.5 t-89 -57.5h-19zM145 159.5q0 73.5 52.5 126t126 52.5t126 -52.5t52.5 -126t-52.5 -125.5t-126 -52t-126 52t-52.5 125.5z" />
<glyph unicode="@" horiz-adv-x="2004" d="M61 471q0 137 33 274.5t111 273.5t192.5 239.5t292.5 168t397 64.5q379 0 614.5 -212t235.5 -552q0 -182 -80.5 -347t-235.5 -272.5t-345 -107.5q-154 0 -182 115q-115 -115 -271 -115q-170 0 -277.5 116.5t-107.5 303.5q0 111 36 224.5t100.5 212.5t170 162.5 t230.5 63.5q184 0 268 -135l25 111h264l-160 -758q-18 -96 33 -96q96 0 224 160.5t128 365.5q0 102 -35.5 198.5t-110.5 184.5t-214.5 142.5t-325.5 54.5q-176 0 -320.5 -52.5t-237.5 -137.5t-155.5 -196.5t-89 -224t-26.5 -227.5q0 -180 68.5 -321.5t187 -227.5t268 -130 t321.5 -44q477 0 691 268h213q-109 -217 -335 -332.5t-544 -115.5q-147 0 -290.5 29.5t-283 98.5t-244 170t-169 257t-64.5 346zM696 416q0 -106 49.5 -170t131 -64t146 56.5t98.5 139.5t50.5 158.5t16.5 133.5q0 106 -51.5 169.5t-135.5 63.5q-141 0 -223 -153.5 t-82 -333.5z" />
<glyph unicode="A" horiz-adv-x="1599" d="M6 0l563 1397h404l620 -1397h-374l-115 276h-625l-104 -276h-369zM571 520h430l-225 543z" />
<glyph unicode="B" horiz-adv-x="1429" d="M156 0v1397h604q227 0 345 -107.5t118 -242.5q0 -86 -51.5 -161t-139.5 -118q145 -37 221 -134t76 -224q0 -68 -21.5 -132.5t-71.5 -131t-153.5 -106.5t-246.5 -40h-680zM504 256h196q143 0 202 40t59 132q0 76 -59.5 117t-153.5 41h-244v-330zM504 842h182q88 0 133 45 t45 106q0 59 -45 103.5t-133 44.5h-182v-299z" />
<glyph unicode="C" horiz-adv-x="1579" d="M96 694q0 295 228.5 508t611.5 213q301 0 506 -123v-311q-256 143 -481 143q-223 0 -364.5 -118.5t-141.5 -305.5q0 -188 140 -308t357 -120q125 0 226.5 34t279.5 120v-305q-147 -76 -271 -107.5t-278 -31.5q-197 0 -355.5 60t-255.5 161.5t-149.5 227.5t-52.5 263z" />
<glyph unicode="D" horiz-adv-x="1642" d="M154 0v1397h616q367 0 569.5 -199t202.5 -502q0 -315 -204.5 -505.5t-606.5 -190.5h-577zM502 256h227q125 0 217 39t142.5 106.5t73 141t22.5 155.5q0 195 -113 319t-346 124h-223v-885z" />
<glyph unicode="E" horiz-adv-x="1300" d="M160 0v1397h1016v-256h-668v-293h637v-256h-637v-336h682v-256h-1030z" />
<glyph unicode="F" horiz-adv-x="1236" d="M156 0v1397h962v-256h-614v-312h614v-256h-614v-573h-348z" />
<glyph unicode="G" horiz-adv-x="1665" d="M96 696q0 319 234.5 519t607.5 200q315 0 551 -115v-305q-268 129 -522 129q-135 0 -238.5 -38.5t-161 -104.5t-85 -140.5t-27.5 -156.5q0 -186 133 -299t350 -113q109 0 231 50v163h-202v256h551v-571q-78 -80 -248 -134t-340 -54q-365 0 -599.5 200.5t-234.5 513.5z " />
<glyph unicode="H" horiz-adv-x="1705" d="M158 0v1397h348v-561h696v561h348v-1397h-348v565h-696v-565h-348z" />
<glyph unicode="I" d="M168 0v1397h348v-1397h-348z" />
<glyph unicode="J" d="M-66 -129q29 -5 55 -5q85 0 132 52q61 68 61 205v1274h348v-1268q0 -279 -137 -416q-120 -120 -368 -120q-43 0 -91 4v274z" />
<glyph unicode="K" horiz-adv-x="1472" d="M154 0v1397h348v-633h4l440 633h383l-455 -656l617 -741h-436l-553 655v-655h-348z" />
<glyph unicode="L" horiz-adv-x="1259" d="M156 0v1397h348v-1141h717v-256h-1065z" />
<glyph unicode="M" horiz-adv-x="1812" d="M156 0v1397h303l448 -518l449 518h303v-1397h-348v872l-377 -438h-53l-377 438v-872h-348z" />
<glyph unicode="N" horiz-adv-x="1728" d="M158 0v1397h319l746 -854v854h348v-1397h-293l-772 895v-895h-348z" />
<glyph unicode="O" horiz-adv-x="1792" d="M96 698q0 129 52.5 255t149.5 229.5t253 168t346 64.5q188 0 345 -64.5t253 -169t148.5 -229.5t52.5 -254q0 -285 -220.5 -500.5t-578.5 -215.5q-184 0 -340 61t-254 163.5t-152.5 229.5t-54.5 262zM455 698.5q0 -192.5 121.5 -309.5t320.5 -117t319.5 117t120.5 309.5 t-120.5 309t-319.5 116.5t-320.5 -116.5t-121.5 -309z" />
<glyph unicode="P" horiz-adv-x="1343" d="M170 0v1397h623q115 0 206 -38t145 -98.5t82.5 -132t28.5 -145.5q0 -166 -118.5 -294t-341.5 -128h-277v-561h-348zM518 817h162q117 0 167 40t50 122q0 90 -57.5 126t-198.5 36h-123v-324z" />
<glyph unicode="Q" horiz-adv-x="1792" d="M96 690q0 135 56.5 264t158 232.5t256 166t334.5 62.5q188 0 345 -65.5t252 -170t147.5 -228.5t52.5 -249q0 -231 -144.5 -420.5t-375.5 -258.5q117 -68 261 -93q62 -11 117 -10q74 0 138 19l22 -29l-272 -232q-377 27 -774 322q-217 39 -395.5 231.5t-178.5 458.5z M455 694q0 -193 120.5 -310.5t321.5 -117.5q193 0 317.5 114t124.5 314q0 203 -127 316.5t-315 113.5q-199 0 -320.5 -117.5t-121.5 -312.5z" />
<glyph unicode="R" horiz-adv-x="1386" d="M156 0v1397h624q207 0 332 -119t125 -283q0 -231 -240 -342q43 -20 75 -52t68 -94.5t60.5 -116.5t79.5 -175t100 -215h-383q-35 70 -79 171t-71.5 159.5t-64.5 120t-81 89t-97 27.5h-100v-567h-348zM504 823h184q82 0 136.5 39t54.5 121q0 158 -199 158h-176v-318z" />
<glyph unicode="S" horiz-adv-x="1236" d="M88 1014q0 182 145.5 291.5t387.5 109.5q221 0 473 -108v-273q-281 125 -443 125q-94 0 -149.5 -30.5t-55.5 -84.5q0 -43 39 -75.5t101.5 -58t139.5 -52.5t152.5 -63.5t138 -84.5t101.5 -127t39 -177q0 -197 -148.5 -310.5t-387.5 -113.5q-115 0 -213.5 21.5t-148.5 44 t-142 69.5v301q152 -100 257 -140t220 -40q205 0 205 129q0 45 -39 80.5t-101.5 60t-139.5 51.5t-152.5 62.5t-138 84t-101.5 127.5t-39 181z" />
<glyph unicode="T" horiz-adv-x="1472" d="M57 1141v256h1360v-256h-506v-1141h-348v1141h-506z" />
<glyph unicode="U" horiz-adv-x="1685" d="M143 602v795h349v-803q0 -147 96 -234.5t250 -87.5q152 0 253 85t101 261v779h348v-793q0 -326 -192.5 -474t-505.5 -148q-319 0 -509 154.5t-190 465.5z" />
<glyph unicode="V" horiz-adv-x="1472" d="M0 1397h379l369 -797l350 797h375l-646 -1415h-151z" />
<glyph unicode="W" horiz-adv-x="2390" d="M-2 1397h369l329 -772l359 772h280l359 -772l327 772h369l-612 -1415h-150l-434 911l-432 -911h-150z" />
<glyph unicode="X" horiz-adv-x="1665" d="M8 0l592 723l-559 674h451l333 -412l328 412h442l-546 -674l606 -723h-451l-379 461l-372 -461h-445z" />
<glyph unicode="Y" horiz-adv-x="1449" d="M0 1397h422l303 -439l305 439h420l-551 -744v-653h-348v653z" />
<glyph unicode="Z" horiz-adv-x="1429" d="M8 0l768 1141h-715v256h1303l-762 -1141h762v-256h-1356z" />
<glyph unicode="[" horiz-adv-x="897" d="M172 -453v1850h686v-223h-389v-1403h389v-224h-686z" />
<glyph unicode="\" horiz-adv-x="575" d="M14 1415h211l346 -1433h-206z" />
<glyph unicode="]" horiz-adv-x="897" d="M39 -229h389v1403h-389v223h686v-1850h-686v224z" />
<glyph unicode="^" horiz-adv-x="1196" d="M115 598l377 799h221l366 -799h-284l-197 489l-197 -489h-286z" />
<glyph unicode="_" horiz-adv-x="1024" d="M-12 -154h1048v-102h-1048v102z" />
<glyph unicode="`" d="M16 1384h338l152 -299h-152z" />
<glyph unicode="a" horiz-adv-x="1087" d="M68 213q0 47 12 85t25.5 65.5t55.5 56.5t68.5 45t101.5 44t116.5 41t148.5 46q23 6 33 10v14q0 62 -34 101q-38 43 -130 43q-88 0 -182.5 -43t-165.5 -115v242q186 115 409 115q399 0 400 -287v-430q0 -66 49 -66q37 0 112 53v-165q-143 -86 -278 -86q-74 0 -112 24.5 t-54 81.5q-158 -106 -311 -106q-111 0 -187.5 69.5t-76.5 161.5zM369 258q0 -41 28.5 -70.5t67.5 -29.5q86 0 164 71v228q-145 -53 -202.5 -93t-57.5 -106z" />
<glyph unicode="b" horiz-adv-x="1193" d="M119 0v1397h297v-506q123 72 243 72q205 0 333 -135.5t128 -352.5t-123 -355t-317 -138q-139 0 -264 90v-72h-297zM416 260q92 -80 176 -80q104 0 165.5 79t61.5 220.5t-65.5 213t-165.5 71.5q-80 0 -172 -66v-438z" />
<glyph unicode="c" horiz-adv-x="1024" d="M82 469q0 217 150.5 355.5t383.5 138.5q154 0 318 -62v-221q-121 63 -242 63q-133 0 -213 -73.5t-80 -198.5t78 -201.5t205 -76.5q92 0 266 65v-213q-176 -63 -319 -63q-248 0 -397.5 133t-149.5 354z" />
<glyph unicode="d" horiz-adv-x="1193" d="M72 473q0 217 128 353.5t330 136.5q123 0 246 -60v494h297v-1397h-297v76q-117 -94 -262 -94q-190 0 -316 140t-126 351zM373 467q0 -129 61.5 -208t165.5 -79q90 0 176 78v451q-78 55 -166 55q-113 0 -175 -78t-62 -219z" />
<glyph unicode="e" horiz-adv-x="1130" d="M76 469q0 217 139 355.5t358 138.5q215 0 357 -146q132 -136 132 -360q0 -16 -1 -33h-678q8 -127 90 -196.5t221 -69.5q90 0 168 29.5t182 105.5v-187q-170 -125 -421 -124q-248 0 -397.5 133t-149.5 354zM389 580h410q-8 96 -63.5 151t-141.5 55q-88 0 -142.5 -54 t-62.5 -152z" />
<glyph unicode="f" horiz-adv-x="618" d="M31 741v203h135v47q0 203 113.5 313.5t300.5 110.5q45 0 180 -18v-240q-94 12 -133 12q-164 0 -164 -165v-60h135v-203h-135v-741h-297v741h-135z" />
<glyph unicode="g" horiz-adv-x="1110" d="M57 -197q0 172 252 236v4q-115 33 -114 123q0 100 172 139v4q-102 16 -183.5 93t-81.5 198q0 39 10.5 81t40 90t75.5 86t123 62.5t173 24.5h561v-199h-135q47 -82 47 -157q0 -121 -86 -207q-72 -72 -184.5 -93.5t-185 -31.5t-72.5 -55q0 -37 59.5 -51.5t139.5 -16.5 t173 -26.5t144 -77.5q76 -76 76 -183q0 -160 -132 -238.5t-368 -78.5q-270 0 -387 80.5t-117 193.5zM332 -184q0 -111 243 -111q96 0 154.5 35t58.5 84q0 104 -231 104q-104 0 -164.5 -29.5t-60.5 -82.5zM379 596q0 -70 51 -120t121 -50t120 53t50 127q0 66 -47 114t-123 48 q-74 0 -123 -50t-49 -122z" />
<glyph unicode="h" horiz-adv-x="1193" d="M127 0v1397h297v-592h4q125 158 299 158q143 0 244.5 -90.5t101.5 -270.5v-602h-297v539q0 102 -41 154t-112 52q-98 0 -199 -143v-602h-297z" />
<glyph unicode="i" horiz-adv-x="555" d="M113 1251.5q0 67.5 48 115.5t115.5 48t115.5 -48t48 -115.5t-48 -116t-115.5 -48.5t-115.5 48.5t-48 116zM129 0v944h297v-944h-297z" />
<glyph unicode="j" horiz-adv-x="555" d="M-18 -203q82 14 117.5 72.5t35.5 175.5v899h297v-971q0 -217 -108.5 -324.5t-247.5 -119.5zM119 1251.5q0 67.5 48 115.5t115.5 48t115.5 -48t48 -115.5t-48 -116t-115.5 -48.5t-115.5 48.5t-48 116z" />
<glyph unicode="k" horiz-adv-x="1130" d="M129 0v1397h297v-920h4l367 467h348l-369 -467l385 -477h-364l-367 465h-4v-465h-297z" />
<glyph unicode="l" horiz-adv-x="555" d="M129 0v1397h297v-1397h-297z" />
<glyph unicode="m" horiz-adv-x="1961" d="M129 0v944h297v-121q74 68 158 107q80 33 170 33q242 0 340 -201q92 106 179 153.5t193 47.5q162 0 265.5 -98.5t103.5 -258.5v-606h-297v553q0 100 -46 155.5t-128 55.5q-131 0 -234 -160v-604h-296v559q0 106 -52.5 155.5t-128.5 49.5q-119 0 -227 -131v-633h-297z" />
<glyph unicode="n" horiz-adv-x="1193" d="M123 0v944h297v-135q133 154 307 154q135 0 239.5 -87.5t104.5 -275.5v-600h-297v575q0 96 -40 142.5t-107 46.5q-55 0 -102.5 -35t-104.5 -121v-608h-297z" />
<glyph unicode="o" horiz-adv-x="1216" d="M76 473q0 229 155.5 359.5t378.5 130.5q92 0 181.5 -27t170 -82t130 -154.5t49.5 -228.5q0 -109 -36 -195t-91.5 -140t-127 -90t-140 -50t-136.5 -14q-233 0 -383.5 135t-150.5 356zM393 473q0 -170 60.5 -242.5t156.5 -72.5q104 0 158.5 83t54.5 238q0 307 -213 307 q-100 0 -158.5 -78.5t-58.5 -234.5z" />
<glyph unicode="p" horiz-adv-x="1193" d="M117 -471v1415h297v-82q121 100 270 101q184 0 311 -138.5t127 -341.5q0 -227 -127 -364t-338 -137q-133 0 -243 65v-518h-297zM414 242q84 -61 172 -62q109 0 172 77t63 210q0 135 -58 210t-165 75q-86 0 -184 -76v-434z" />
<glyph unicode="q" horiz-adv-x="1193" d="M72 483q0 205 125 342.5t313 137.5q150 0 268 -101v82h297v-1415h-297v518q-109 -66 -243 -65q-209 0 -336 138t-127 363zM373 467q0 -133 62.5 -210t170.5 -77q88 0 172 62v434q-94 76 -184 76q-106 0 -163.5 -75t-57.5 -210z" />
<glyph unicode="r" horiz-adv-x="917" d="M131 0v944h297v-270h4q129 289 301 289q80 0 197 -86l-82 -263q-111 70 -176 70q-78 0 -134.5 -68.5t-109.5 -207.5v-408h-297z" />
<glyph unicode="s" horiz-adv-x="874" d="M76 672q0 131 107.5 211t283.5 80q166 0 305 -70v-211q-168 104 -315 104q-106 0 -107 -73q0 -33 74 -67t161 -65.5t160.5 -108.5t73.5 -183q0 -147 -100.5 -227t-284.5 -80q-100 0 -198.5 23.5t-139.5 45.5v209q188 -80 305 -80q66 0 105 18.5t39 51.5q0 37 -48 65.5 t-117 54t-138.5 58.5t-117.5 95.5t-48 148.5z" />
<glyph unicode="t" horiz-adv-x="831" d="M25 741v58l395 442h37v-297h344v-203h-344v-389q0 -70 39 -110.5t106 -40.5q90 0 199 55v-215q-143 -59 -275 -59q-162 0 -264 84t-102 270v405h-135z" />
<glyph unicode="u" horiz-adv-x="1193" d="M123 340v604h297v-584q0 -94 42 -137t107 -43q68 0 124.5 46t78.5 116v602h299v-944h-297v135q-133 -154 -305 -153q-150 0 -248 92t-98 266z" />
<glyph unicode="v" horiz-adv-x="1044" d="M4 944h318l200 -520l203 520h315l-434 -962h-166z" />
<glyph unicode="w" horiz-adv-x="1599" d="M-2 944h303l199 -520l211 520h180l209 -520l198 520h304l-424 -962h-142l-235 514l-238 -514h-139z" />
<glyph unicode="x" horiz-adv-x="1130" d="M8 0l385 483l-385 461h346l203 -272l193 272h346l-373 -461l401 -483h-344l-223 293l-215 -293h-334z" />
<glyph unicode="y" horiz-adv-x="1044" d="M2 944h317l199 -485l213 485h311l-632 -1397h-316l277 607z" />
<glyph unicode="z" horiz-adv-x="1067" d="M39 0l485 741h-438v203h922l-484 -741h484v-203h-969z" />
<glyph unicode="{" horiz-adv-x="788" d="M59 410v233q125 2 172.5 77t47.5 228v162q0 201 93 287t281 86h90v-240h-12q-135 0 -164.5 -34.5t-29.5 -192.5q0 -203 -30 -306.5t-145 -183.5q115 -80 145 -183t30 -306q0 -158 29.5 -192.5t164.5 -34.5h12v-240h-90q-188 0 -281 86t-93 287v161q0 154 -47.5 229 t-172.5 77z" />
<glyph unicode="|" horiz-adv-x="575" d="M176 -512v2048h223v-2048h-223z" />
<glyph unicode="}" horiz-adv-x="788" d="M45 -190h12q135 0 165 34.5t30 192.5q0 203 29.5 306t144.5 183q-115 80 -144.5 183.5t-29.5 306.5q0 158 -29.5 192.5t-165.5 34.5h-12v240h90q188 0 281.5 -86t93.5 -287v-162q0 -154 47 -228.5t172 -76.5v-233q-125 -2 -172 -77t-47 -229v-161q0 -201 -93 -287 t-282 -86h-90v240z" />
<glyph unicode="~" horiz-adv-x="1196" d="M33 358v269q180 147 327 147q90 0 258 -80t244 -80q123 0 299 152v-266q-59 -59 -151 -103.5t-172 -44.5q-88 0 -261.5 81t-232.5 81q-70 0 -138.5 -34t-172.5 -122z" />
<glyph unicode="&#xa1;" horiz-adv-x="555" d="M98 784.5q0 73.5 52.5 126t126 52.5t126 -52.5t52.5 -126t-52.5 -126t-126 -52.5t-126 52.5t-52.5 126zM106 -250q0 115 40 367t63 332q14 49 25.5 61t41.5 12q33 0 45.5 -15t26.5 -71q100 -420 101 -686q0 -106 -45.5 -163.5t-127 -57.5t-126 57.5t-44.5 163.5z" />
<glyph unicode="&#xa2;" horiz-adv-x="1024" d="M84 465q0 236 173 380t456 111l106 338h146l-113 -362q55 -16 80 -29v-223q-66 35 -141 57l-170 -536q156 -20 325 63v-219q-170 -63 -393 -63l-117 -369h-145l123 387q-162 53 -246 175t-84 290zM393 471q0 -137 99 -217l155 489q-113 -8 -183.5 -82.5t-70.5 -189.5z " />
<glyph unicode="&#xa3;" horiz-adv-x="1067" d="M96 -18q2 66 38 262t69 321h-92v244h157q51 172 100.5 284.5t120.5 184.5q76 76 173.5 111.5t187.5 21.5l119 -268q-156 37 -259.5 -39t-152.5 -295h131v-244h-199l-53 -266q33 10 64 10q66 0 160 -22.5t157 -22.5q86 0 166 35v-276q-92 -41 -182 -41q-29 0 -164 24.5 t-221 24.5q-136 0 -320 -49z" />
<glyph unicode="&#xa4;" horiz-adv-x="1130" d="M45 352l133 133q-55 88 -55 215q0 111 55 215l-133 134l170 170l131 -132q123 55 219 56q119 0 215 -56l133 134l174 -174l-133 -134q55 -100 56 -213q0 -109 -58 -219l133 -133l-170 -170l-135 135q-92 -57 -215 -57q-119 0 -213 55l-133 -133zM362 700q0 -84 59.5 -144 t143.5 -60t144.5 60t60.5 144t-60.5 143.5t-144.5 59.5t-143.5 -59.5t-59.5 -143.5z" />
<glyph unicode="&#xa5;" horiz-adv-x="1130" d="M2 1466h309l250 -567h4l256 567h309l-315 -628h264v-224h-374v-118h374v-224h-374v-272h-283v272h-371v224h371v118h-371v224h260z" />
<glyph unicode="&#xa6;" horiz-adv-x="575" d="M176 -358v716h223v-716h-223zM176 666v716h223v-716h-223z" />
<glyph unicode="&#xa7;" horiz-adv-x="1067" d="M51 512q0 201 180 379q-59 84 -77.5 123t-18.5 92q0 143 111.5 226t300 83t285 -63.5t96.5 -159.5q0 -63 -44 -107.5t-108 -44.5q-55 0 -92 37q-20 20 -31.5 64.5t-33 71t-76.5 26.5q-51 0 -85 -29.5t-34 -72.5q0 -39 44 -84t109.5 -86t141.5 -98.5t141.5 -117 t109.5 -146.5t44 -183q0 -109 -41 -190.5t-142 -180.5q55 -74 75 -122t20 -109q0 -135 -105.5 -213t-292.5 -78q-170 0 -279.5 62.5t-109.5 158.5q0 57 46 102.5t106 45.5q57 0 90 -33q29 -29 39 -72t27.5 -65.5t74.5 -22.5q51 0 84 26.5t33 69.5q0 45 -44 94.5t-108.5 90.5 t-141.5 96t-141.5 112.5t-108.5 140.5t-44 177zM313 592q0 -23 4.5 -43.5t16.5 -42t22.5 -37.5t35.5 -42l40 -40q14 -14 52 -44t57.5 -45t68.5 -52l74 -56q70 76 70 156q0 37 -13.5 72t-30 59.5t-58.5 63.5t-69.5 60.5t-94 72.5t-105.5 82q-70 -84 -70 -164z" />
<glyph unicode="&#xa8;" d="M0 1216.5q0 55.5 39 94.5t94 39t94 -39t39 -94.5t-39 -94.5t-94 -39t-94 39t-39 94.5zM416 1216.5q0 55.5 39 94.5t94 39t94 -39t39 -94.5t-39 -94.5t-94 -39t-94 39t-39 94.5z" />
<glyph unicode="&#xa9;" horiz-adv-x="1515" d="M-8 729.5q0 317.5 224 541.5t541.5 224t542 -224t224.5 -541.5t-224.5 -542t-542 -224.5t-541.5 224.5t-224 542zM143 729q0 -256 180.5 -436t434.5 -180t435 181t181 435t-180 434t-436 180q-254 0 -434.5 -180t-180.5 -434zM381 723q0 199 104.5 315.5t284.5 116.5 q246 0 334 -244l-162 -39q-53 139 -178 140q-98 0 -152.5 -74t-54.5 -209q0 -133 52.5 -209t146.5 -76q137 0 186 172l162 -55q-39 -125 -125 -191.5t-211 -66.5q-176 0 -281.5 113.5t-105.5 306.5z" />
<glyph unicode="&#xaa;" horiz-adv-x="724" d="M45 977q0 31 10.5 55.5t36 45t46 34.5t63.5 29.5t65.5 22.5t73.5 20.5t66 17.5q0 45 -22 64.5t-71 19.5q-127 0 -235 -110v167q125 72 274 72q106 0 187.5 -39t81.5 -137v-244q0 -37 18 -37q25 0 84 37v-116q-100 -55 -191 -56q-92 0 -114 56q-96 -55 -193 -56 q-78 0 -129 44t-51 110zM262 995q0 -23 14.5 -38t36.5 -15q47 0 93 35v121q-86 -29 -115 -49.5t-29 -53.5z" />
<glyph unicode="&#xab;" horiz-adv-x="1216" d="M18 469l330 455h293l-326 -455l326 -455h-293zM571 469l330 455h293l-326 -455l326 -455h-293z" />
<glyph unicode="&#xac;" horiz-adv-x="1196" d="M86 674v262h1022v-698h-262v436h-760z" />
<glyph unicode="&#xad;" d="M74 338v272h534v-272h-534z" />
<glyph unicode="&#xae;" horiz-adv-x="1515" d="M-8 729.5q0 317.5 224 541.5t541.5 224t542 -224t224.5 -541.5t-224.5 -542t-542 -224.5t-541.5 224.5t-224 542zM143 729q0 -256 180.5 -436t434.5 -180t435 181t181 435t-180 434t-436 180q-254 0 -434.5 -180t-180.5 -434zM412 319v814h401q125 0 190.5 -62.5 t65.5 -165.5q0 -92 -58.5 -153.5t-160.5 -73.5v-4q53 -18 83 -51t91 -140l94 -164h-203l-65 134q-49 98 -111 159q-41 41 -133 41h-31v-334h-163zM575 782h170q78 0 114 32t36 81q0 111 -168 111h-152v-224z" />
<glyph unicode="&#xaf;" d="M-55 1118v199h792v-199h-792z" />
<glyph unicode="&#xb0;" horiz-adv-x="811" d="M86 1171.5q0 131.5 94 225.5t225.5 94t225.5 -94t94 -225.5t-94 -225.5t-225.5 -94t-225.5 94t-94 225.5zM262 1171.5q0 -59.5 42 -101.5t101.5 -42t101.5 42t42 101.5t-42 101.5t-101.5 42t-101.5 -42t-42 -101.5z" />
<glyph unicode="&#xb1;" horiz-adv-x="1196" d="M86 0v262h1024v-262h-1024zM86 737v262h381v381h262v-381h381v-262h-381v-381h-262v381h-381z" />
<glyph unicode="&#xb2;" d="M68 680v27q174 195 246.5 297t72.5 174q0 41 -27.5 68.5t-70.5 27.5q-88 0 -211 -105v174q133 72 241 72q127 0 201 -55t74 -152q0 -72 -52.5 -157.5t-164.5 -214.5h260v-156h-569z" />
<glyph unicode="&#xb3;" d="M66 719v155q106 -66 190 -65q51 0 82 22.5t31 61.5q0 84 -127 94v137q113 10 112 82q0 35 -29.5 56.5t-76.5 21.5q-68 0 -162 -45v141q90 35 201 35q121 0 198.5 -50t77.5 -130q0 -104 -117 -166q139 -55 140 -182q0 -96 -86 -156.5t-224 -60.5q-87 0 -210 49z" />
<glyph unicode="&#xb4;" d="M178 1085l152 299h338l-338 -299h-152z" />
<glyph unicode="&#xb5;" horiz-adv-x="1259" d="M139 -360v1304h297v-461q0 -303 189 -303q90 0 143 71t53 195v498h297v-944h-276v123h-4q-23 -68 -80.5 -104.5t-122.5 -36.5q-137 0 -195 133h-4v-475h-297z" />
<glyph unicode="&#xb6;" horiz-adv-x="1130" d="M-2 1049q0 180 110.5 298.5t335.5 118.5h684v-262h-112v-1607h-244v1607h-137v-1607h-244v1046q-186 14 -289.5 122t-103.5 284z" />
<glyph unicode="&#xb7;" horiz-adv-x="555" d="M98 706.5q0 73.5 52.5 126t126 52.5t126 -52.5t52.5 -126t-52.5 -126t-126 -52.5t-126 52.5t-52.5 126z" />
<glyph unicode="&#xb8;" d="M205 -244q92 -2 123.5 13.5t31.5 50.5q0 57 -84 57l80 139h123l-26 -63q127 -45 127 -150q0 -76 -58.5 -123t-165.5 -47q-96 0 -151 19v104z" />
<glyph unicode="&#xb9;" d="M236 680v735h213v-735h-213z" />
<glyph unicode="&#xba;" horiz-adv-x="811" d="M53 1116q0 129 101.5 214t253.5 85q154 0 253 -84t99 -209q0 -133 -98.5 -216t-254 -83t-255 83t-99.5 210zM283 1114q0 -170 127 -170q121 0 120 184q0 166 -127 166q-120 0 -120 -180z" />
<glyph unicode="&#xbb;" horiz-adv-x="1216" d="M25 14l325 455l-325 455h292l330 -455l-330 -455h-292zM573 14l326 455l-326 455h293l330 -455l-330 -455h-293z" />
<glyph unicode="&#xbc;" horiz-adv-x="1835" d="M207 -55l979 1470h192l-979 -1470h-192zM242 680v735h213v-735h-213zM977 176v121l393 440h133v-434h58v-127h-58v-176h-207v176h-319zM1151 303h145v160z" />
<glyph unicode="&#xbd;" horiz-adv-x="1835" d="M207 -55l979 1470h192l-979 -1470h-192zM242 680v735h213v-735h-213zM1100 0v27q174 195 246.5 297t72.5 174q0 41 -27.5 68.5t-70.5 27.5q-88 0 -211 -105v175q133 72 242 71q127 0 200.5 -55t73.5 -152q0 -72 -52 -157.5t-165 -214.5h260v-156h-569z" />
<glyph unicode="&#xbe;" horiz-adv-x="1835" d="M72 719v155q106 -66 190 -65q51 0 82 22.5t31 61.5q0 84 -127 94v137q113 10 112 82q0 35 -29.5 56.5t-76.5 21.5q-68 0 -162 -45v141q90 35 201 35q121 0 198.5 -50t77.5 -130q0 -104 -116 -166q139 -55 139 -182q0 -96 -86 -156.5t-223 -60.5q-88 0 -211 49zM254 -55 l979 1470h192l-979 -1470h-192zM1024 176v121l393 440h133v-434h58v-127h-58v-176h-207v176h-319zM1198 303h145v160z" />
<glyph unicode="&#xbf;" horiz-adv-x="768" d="M90 -184q0 86 31 162.5t75 133t87 109.5t73.5 115.5t30.5 130.5v25q0 23 12.5 27.5t51.5 4.5q37 0 53 -16q14 -14 35.5 -85t21.5 -128q0 -86 -40 -169t-80 -152.5t-40 -119t32 -77t89 -27.5q51 0 87 14.5t89 57.5h19l-51 -252q-121 -41 -238 -41q-158 0 -248 78t-90 209z M266 784.5q0 73.5 52.5 126t126 52.5t126 -52.5t52.5 -126t-52.5 -126t-126 -52.5t-126 52.5t-52.5 126z" />
<glyph unicode="&#xc0;" horiz-adv-x="1599" d="M6 0l563 1397h404l620 -1397h-374l-115 276h-625l-104 -276h-369zM475 1831h338l152 -299h-152zM571 520h430l-225 543z" />
<glyph unicode="&#xc1;" horiz-adv-x="1599" d="M6 0l563 1397h404l620 -1397h-374l-115 276h-625l-104 -276h-369zM571 520h430l-225 543zM637 1532l151 299h338l-338 -299h-151z" />
<glyph unicode="&#xc2;" horiz-adv-x="1599" d="M6 0l563 1397h404l620 -1397h-374l-115 276h-625l-104 -276h-369zM457 1485l202 358h281l203 -358h-182l-160 178l-164 -178h-180zM571 520h430l-225 543z" />
<glyph unicode="&#xc3;" horiz-adv-x="1599" d="M6 0l563 1397h404l620 -1397h-374l-115 276h-625l-104 -276h-369zM401 1516q10 143 75 224t169 81q63 0 174 -55.5t150 -55.5q72 0 90 111h139q-10 -147 -71.5 -228.5t-168.5 -81.5q-61 0 -175.5 55.5t-153.5 55.5q-80 0 -92 -106h-136zM571 520h430l-225 543z" />
<glyph unicode="&#xc4;" horiz-adv-x="1599" d="M6 0l563 1397h404l620 -1397h-374l-115 276h-625l-104 -276h-369zM459 1663q0 55 39 94t94 39t94 -39t39 -94t-39 -94t-94 -39t-94 39t-39 94zM571 520h430l-225 543zM874 1663q0 55 39 94t94.5 39t94.5 -39t39 -94t-39 -94t-94.5 -39t-94.5 39t-39 94z" />
<glyph unicode="&#xc5;" horiz-adv-x="1599" d="M6 0l563 1397h404l620 -1397h-374l-115 276h-625l-104 -276h-369zM571 520h430l-225 543zM592 1696q0 86 61.5 146.5t147.5 60.5t146.5 -60.5t60.5 -146.5t-60.5 -147.5t-146.5 -61.5t-147.5 61.5t-61.5 147.5zM690 1696q0 -47 33 -80t78 -33q47 0 79.5 34t32.5 79 t-32.5 77.5t-79.5 32.5t-79 -32.5t-32 -77.5z" />
<glyph unicode="&#xc6;" horiz-adv-x="2197" d="M-12 0l835 1397h1241v-256h-651v-305h623v-256h-623v-324h670v-256h-1018v580h-373l-346 -580h-358zM846 836h219v378h-4z" />
<glyph unicode="&#xc7;" horiz-adv-x="1579" d="M96 694q0 295 228.5 508t611.5 213q301 0 506 -123v-311q-256 143 -481 143q-223 0 -364.5 -118.5t-141.5 -305.5q0 -188 140 -308t357 -120q125 0 226.5 34t279.5 120v-305q-152 -78 -274.5 -108.5t-304.5 -30.5l-17 -37q127 -45 127 -150q0 -76 -58.5 -123t-164.5 -47 q-96 0 -152 19v104q92 -2 124 13.5t32 50.5q0 57 -84 57l72 125q-315 41 -488.5 240.5t-173.5 459.5z" />
<glyph unicode="&#xc8;" horiz-adv-x="1300" d="M160 0v1397h1016v-256h-668v-293h637v-256h-637v-336h682v-256h-1030zM326 1831h338l151 -299h-151z" />
<glyph unicode="&#xc9;" horiz-adv-x="1300" d="M160 0v1397h1016v-256h-668v-293h637v-256h-637v-336h682v-256h-1030zM487 1532l152 299h338l-338 -299h-152z" />
<glyph unicode="&#xca;" horiz-adv-x="1300" d="M160 0v1397h1016v-256h-668v-293h637v-256h-637v-336h682v-256h-1030zM307 1485l203 358h281l202 -358h-182l-160 178l-164 -178h-180z" />
<glyph unicode="&#xcb;" horiz-adv-x="1300" d="M160 0v1397h1016v-256h-668v-293h637v-256h-637v-336h682v-256h-1030zM309 1663q0 55 39 94t94.5 39t94 -39t38.5 -94t-38.5 -94t-94 -39t-94.5 39t-39 94zM725 1663q0 55 39 94t94 39t94 -39t39 -94t-39 -94t-94 -39t-94 39t-39 94z" />
<glyph unicode="&#xcc;" d="M16 1831h338l152 -299h-152zM168 0v1397h348v-1397h-348z" />
<glyph unicode="&#xcd;" d="M168 0v1397h348v-1397h-348zM178 1532l152 299h338l-338 -299h-152z" />
<glyph unicode="&#xce;" d="M-2 1485l203 358h280l203 -358h-182l-160 178l-164 -178h-180zM168 0v1397h348v-1397h-348z" />
<glyph unicode="&#xcf;" d="M0 1663q0 55 39 94t94 39t94 -39t39 -94t-39 -94t-94 -39t-94 39t-39 94zM168 0v1397h348v-1397h-348zM416 1663q0 55 39 94t94 39t94 -39t39 -94t-39 -94t-94 -39t-94 39t-39 94z" />
<glyph unicode="&#xd0;" horiz-adv-x="1642" d="M-16 606v187h170v604h616q367 0 569.5 -199t202.5 -502q0 -315 -204.5 -505.5t-606.5 -190.5h-577v606h-170zM502 256h227q125 0 217 39t142.5 106.5t73 141t22.5 155.5q0 195 -113 319t-346 124h-223v-348h311v-187h-311v-350z" />
<glyph unicode="&#xd1;" horiz-adv-x="1728" d="M158 0v1397h319l746 -854v854h348v-1397h-293l-772 895v-895h-348zM467 1516q10 143 74.5 224t169.5 81q63 0 173.5 -55.5t149.5 -55.5q72 0 90 111h140q-10 -147 -72 -228.5t-168 -81.5q-61 0 -176 55.5t-154 55.5q-80 0 -92 -106h-135z" />
<glyph unicode="&#xd2;" horiz-adv-x="1792" d="M96 698q0 129 52.5 255t149.5 229.5t253 168t346 64.5q188 0 345 -64.5t253 -169t148.5 -229.5t52.5 -254q0 -285 -220.5 -500.5t-578.5 -215.5q-184 0 -340 61t-254 163.5t-152.5 229.5t-54.5 262zM455 698.5q0 -192.5 121.5 -309.5t320.5 -117t319.5 117t120.5 309.5 t-120.5 309t-319.5 116.5t-320.5 -116.5t-121.5 -309zM571 1831h338l152 -299h-152z" />
<glyph unicode="&#xd3;" horiz-adv-x="1792" d="M96 698q0 129 52.5 255t149.5 229.5t253 168t346 64.5q188 0 345 -64.5t253 -169t148.5 -229.5t52.5 -254q0 -285 -220.5 -500.5t-578.5 -215.5q-184 0 -340 61t-254 163.5t-152.5 229.5t-54.5 262zM455 698.5q0 -192.5 121.5 -309.5t320.5 -117t319.5 117t120.5 309.5 t-120.5 309t-319.5 116.5t-320.5 -116.5t-121.5 -309zM733 1532l152 299h338l-338 -299h-152z" />
<glyph unicode="&#xd4;" horiz-adv-x="1792" d="M96 698q0 129 52.5 255t149.5 229.5t253 168t346 64.5q188 0 345 -64.5t253 -169t148.5 -229.5t52.5 -254q0 -285 -220.5 -500.5t-578.5 -215.5q-184 0 -340 61t-254 163.5t-152.5 229.5t-54.5 262zM455 698.5q0 -192.5 121.5 -309.5t320.5 -117t319.5 117t120.5 309.5 t-120.5 309t-319.5 116.5t-320.5 -116.5t-121.5 -309zM553 1485l203 358h280l203 -358h-182l-160 178l-164 -178h-180z" />
<glyph unicode="&#xd5;" horiz-adv-x="1792" d="M96 698q0 129 52.5 255t149.5 229.5t253 168t346 64.5q188 0 345 -64.5t253 -169t148.5 -229.5t52.5 -254q0 -285 -220.5 -500.5t-578.5 -215.5q-184 0 -340 61t-254 163.5t-152.5 229.5t-54.5 262zM455 698.5q0 -192.5 121.5 -309.5t320.5 -117t319.5 117t120.5 309.5 t-120.5 309t-319.5 116.5t-320.5 -116.5t-121.5 -309zM498 1516q10 143 74.5 224t168.5 81q66 0 174.5 -55.5t149.5 -55.5q72 0 90 111h139q-10 -147 -71.5 -228.5t-167.5 -81.5q-63 0 -178 55.5t-152 55.5q-80 0 -92 -106h-135z" />
<glyph unicode="&#xd6;" horiz-adv-x="1792" d="M96 698q0 129 52.5 255t149.5 229.5t253 168t346 64.5q188 0 345 -64.5t253 -169t148.5 -229.5t52.5 -254q0 -285 -220.5 -500.5t-578.5 -215.5q-184 0 -340 61t-254 163.5t-152.5 229.5t-54.5 262zM455 698.5q0 -192.5 121.5 -309.5t320.5 -117t319.5 117t120.5 309.5 t-120.5 309t-319.5 116.5t-320.5 -116.5t-121.5 -309zM555 1663q0 55 39 94t94 39t94 -39t39 -94t-39 -94t-94 -39t-94 39t-39 94zM971 1663q0 55 39 94t94 39t94 -39t39 -94t-39 -94t-94 -39t-94 39t-39 94z" />
<glyph unicode="&#xd7;" horiz-adv-x="1196" d="M111 420l303 303l-303 303l184 184l303 -303l303 303l184 -184l-303 -303l303 -303l-184 -184l-303 303l-303 -303z" />
<glyph unicode="&#xd8;" horiz-adv-x="1792" d="M53 80l205 178q-162 193 -162 440q0 129 52.5 255t149.5 229.5t254 168t347 64.5q279 0 492 -145l172 155l141 -141l-170 -147q162 -193 162 -439q0 -135 -55.5 -263t-155 -229.5t-252 -162.5t-334.5 -61q-276 0 -496 143l-225 -201zM455 698q0 -127 51 -215l645 576 q-109 66 -252 65q-201 0 -322.5 -116.5t-121.5 -309.5zM643 338q96 -66 256 -66q199 0 318.5 117t119.5 309q0 131 -51 217z" />
<glyph unicode="&#xd9;" horiz-adv-x="1685" d="M143 602v795h349v-803q0 -147 96 -234.5t250 -87.5q152 0 253 85t101 261v779h348v-793q0 -326 -192.5 -474t-505.5 -148q-319 0 -509 154.5t-190 465.5zM518 1831h338l152 -299h-152z" />
<glyph unicode="&#xda;" horiz-adv-x="1685" d="M143 602v795h349v-803q0 -147 96 -234.5t250 -87.5q152 0 253 85t101 261v779h348v-793q0 -326 -192.5 -474t-505.5 -148q-319 0 -509 154.5t-190 465.5zM680 1532l151 299h338l-338 -299h-151z" />
<glyph unicode="&#xdb;" horiz-adv-x="1685" d="M143 602v795h349v-803q0 -147 96 -234.5t250 -87.5q152 0 253 85t101 261v779h348v-793q0 -326 -192.5 -474t-505.5 -148q-319 0 -509 154.5t-190 465.5zM500 1485l202 358h281l203 -358h-182l-160 178l-164 -178h-180z" />
<glyph unicode="&#xdc;" horiz-adv-x="1685" d="M143 602v795h349v-803q0 -147 96 -234.5t250 -87.5q152 0 253 85t101 261v779h348v-793q0 -326 -192.5 -474t-505.5 -148q-319 0 -509 154.5t-190 465.5zM502 1663q0 55 39 94t94 39t94 -39t39 -94t-39 -94t-94 -39t-94 39t-39 94zM918 1663q0 55 38.5 94t94 39t94.5 -39 t39 -94t-39 -94t-94.5 -39t-94 39t-38.5 94z" />
<glyph unicode="&#xdd;" horiz-adv-x="1449" d="M0 1397h422l303 -439l305 439h420l-551 -744v-653h-348v653zM563 1532l152 299h338l-338 -299h-152z" />
<glyph unicode="&#xde;" horiz-adv-x="1343" d="M170 0v1397h348v-281h275q221 0 341.5 -127t120.5 -287q0 -166 -118.5 -293.5t-341.5 -127.5h-277v-281h-348zM518 537h162q117 0 167 39.5t50 121.5q0 90 -57.5 126t-198.5 36h-123v-323z" />
<glyph unicode="&#xdf;" horiz-adv-x="1236" d="M133 0v975q0 156 66.5 258t164 142t222.5 40q221 0 354 -96t133 -258q0 -90 -49 -163t-131 -107q238 -90 237 -381q0 -190 -114.5 -309t-298.5 -119q-72 0 -139 18v190q43 -14 55 -14q90 0 143 74t53 196q0 133 -61 204t-178 65v147q92 -4 137 48.5t45 140.5t-45 138 t-123 50q-98 0 -136 -67.5t-38 -192.5v-979h-297z" />
<glyph unicode="&#xe0;" horiz-adv-x="1087" d="M68 213q0 47 12 85t25.5 65.5t55.5 56.5t68.5 45t101.5 44t116.5 41t148.5 46q23 6 33 10q4 72 -34 115t-130 43q-88 0 -182.5 -43t-165.5 -115v242q186 115 409 115q399 0 400 -287v-430q0 -66 49 -66q37 0 112 53v-165q-143 -86 -278 -86q-74 0 -112 24.5t-54 81.5 q-158 -106 -311 -106q-111 0 -187.5 69.5t-76.5 161.5zM219 1384h338l152 -299h-152zM369 258q0 -41 28.5 -70.5t67.5 -29.5q86 0 164 71v228q-145 -53 -202.5 -93t-57.5 -106z" />
<glyph unicode="&#xe1;" horiz-adv-x="1087" d="M68 213q0 47 12 85t25.5 65.5t55.5 56.5t68.5 45t101.5 44t116.5 41t148.5 46q23 6 33 10q4 72 -34 115t-130 43q-88 0 -182.5 -43t-165.5 -115v242q186 115 409 115q399 0 400 -287v-430q0 -66 49 -66q37 0 112 53v-165q-143 -86 -278 -86q-74 0 -112 24.5t-54 81.5 q-158 -106 -311 -106q-111 0 -187.5 69.5t-76.5 161.5zM369 258q0 -41 28.5 -70.5t67.5 -29.5q86 0 164 71v228q-145 -53 -202.5 -93t-57.5 -106zM381 1085l151 299h338l-338 -299h-151z" />
<glyph unicode="&#xe2;" horiz-adv-x="1087" d="M68 213q0 47 12 85t25.5 65.5t55.5 56.5t68.5 45t101.5 44t116.5 41t148.5 46q23 6 33 10q4 72 -34 115t-130 43q-88 0 -182.5 -43t-165.5 -115v242q186 115 409 115q399 0 400 -287v-430q0 -66 49 -66q37 0 112 53v-165q-143 -86 -278 -86q-74 0 -112 24.5t-54 81.5 q-158 -106 -311 -106q-111 0 -187.5 69.5t-76.5 161.5zM201 1038l202 359h281l203 -359h-182l-160 179l-164 -179h-180zM369 258q0 -41 28.5 -70.5t67.5 -29.5q86 0 164 71v228q-145 -53 -202.5 -93t-57.5 -106z" />
<glyph unicode="&#xe3;" horiz-adv-x="1087" d="M68 213q0 47 12 85t25.5 65.5t55.5 56.5t68.5 45t101.5 44t116.5 41t148.5 46q23 6 33 10q4 72 -34 115t-130 43q-88 0 -182.5 -43t-165.5 -115v242q186 115 409 115q399 0 400 -287v-430q0 -66 49 -66q37 0 112 53v-165q-143 -86 -278 -86q-74 0 -112 24.5t-54 81.5 q-158 -106 -311 -106q-111 0 -187.5 69.5t-76.5 161.5zM145 1069q10 143 75 224t169 81q66 0 174.5 -55t149.5 -55q72 0 90 110h139q-10 -147 -71.5 -228t-168.5 -81q-63 0 -177.5 55.5t-151.5 55.5q-80 0 -92 -107h-136zM369 258q0 -41 28.5 -70.5t67.5 -29.5q86 0 164 71 v228q-145 -53 -202.5 -93t-57.5 -106z" />
<glyph unicode="&#xe4;" horiz-adv-x="1087" d="M68 213q0 47 12 85t25.5 65.5t55.5 56.5t68.5 45t101.5 44t116.5 41t148.5 46q23 6 33 10q4 72 -34 115t-130 43q-88 0 -182.5 -43t-165.5 -115v242q186 115 409 115q399 0 400 -287v-430q0 -66 49 -66q37 0 112 53v-165q-143 -86 -278 -86q-74 0 -112 24.5t-54 81.5 q-158 -106 -311 -106q-111 0 -187.5 69.5t-76.5 161.5zM203 1216.5q0 55.5 39 94.5t94 39t94 -39t39 -94.5t-39 -94.5t-94 -39t-94 39t-39 94.5zM369 258q0 -41 28.5 -70.5t67.5 -29.5q86 0 164 71v228q-145 -53 -202.5 -93t-57.5 -106zM618 1216.5q0 55.5 39 94.5t94.5 39 t94.5 -39t39 -94.5t-39 -94.5t-94.5 -39t-94.5 39t-39 94.5z" />
<glyph unicode="&#xe5;" horiz-adv-x="1087" d="M68 213q0 47 12 85t25.5 65.5t55.5 56.5t68.5 45t101.5 44t116.5 41t148.5 46q23 6 33 10q4 72 -34 115t-130 43q-88 0 -182.5 -43t-165.5 -115v242q186 115 409 115q399 0 400 -287v-430q0 -66 49 -66q37 0 112 53v-165q-143 -86 -278 -86q-74 0 -112 24.5t-54 81.5 q-158 -106 -311 -106q-111 0 -187.5 69.5t-76.5 161.5zM336 1249q0 86 61.5 146.5t147.5 60.5t146.5 -60.5t60.5 -146.5t-60.5 -147.5t-146.5 -61.5t-147.5 61.5t-61.5 147.5zM369 258q0 -41 28.5 -70.5t67.5 -29.5q86 0 164 71v228q-145 -53 -202.5 -93t-57.5 -106z M434 1249q0 -47 33 -79.5t78 -32.5t78.5 33.5t33.5 78.5t-32.5 78t-79.5 33q-45 0 -78 -33t-33 -78z" />
<glyph unicode="&#xe6;" horiz-adv-x="1599" d="M74 217q0 68 31.5 122t67.5 87t126 68.5t140 51t175 50.5q18 6 29 8q8 74 -40 117t-128 43q-82 0 -184.5 -45t-175.5 -115v236q211 123 389 123q92 0 158.5 -22.5t148.5 -82.5q119 104 281 105q195 0 324.5 -150.5t115.5 -386.5h-592q-6 -125 58.5 -196.5t175.5 -71.5 q178 0 344 147v-194q-174 -129 -410 -129q-242 0 -383 129q-170 -129 -383 -129q-123 0 -195.5 68.5t-72.5 166.5zM375 256q0 -43 26.5 -70.5t67.5 -27.5q68 0 174 67v232q-268 -74 -268 -201zM940 582h307q-16 205 -157 204q-144 1 -150 -204z" />
<glyph unicode="&#xe7;" horiz-adv-x="1024" d="M82 469q0 217 150.5 355.5t383.5 138.5q154 0 318 -62v-221q-121 63 -242 63q-133 0 -213 -73.5t-80 -198.5t78 -201.5t205 -76.5q92 0 266 65v-213q-176 -63 -340 -63l-12 -29q127 -45 127 -150q0 -76 -58.5 -123t-164.5 -47q-96 0 -152 19v104q92 -2 124 13.5t32 50.5 q0 57 -84 57l67 119q-188 35 -296.5 160t-108.5 313z" />
<glyph unicode="&#xe8;" horiz-adv-x="1130" d="M76 469q0 217 139 355.5t358 138.5q215 0 356.5 -145.5t131.5 -393.5h-678q8 -127 90 -196.5t221 -69.5q90 0 168 29.5t182 105.5v-187q-170 -125 -421 -124q-248 0 -397.5 133t-149.5 354zM242 1384h338l151 -299h-151zM389 580h410q-8 96 -63.5 151t-141.5 55 q-88 0 -142.5 -54t-62.5 -152z" />
<glyph unicode="&#xe9;" horiz-adv-x="1130" d="M76 469q0 217 139 355.5t358 138.5q215 0 356.5 -145.5t131.5 -393.5h-678q8 -127 90 -196.5t221 -69.5q90 0 168 29.5t182 105.5v-187q-170 -125 -421 -124q-248 0 -397.5 133t-149.5 354zM389 580h410q-8 96 -63.5 151t-141.5 55q-88 0 -142.5 -54t-62.5 -152z M403 1085l152 299h338l-338 -299h-152z" />
<glyph unicode="&#xea;" horiz-adv-x="1130" d="M76 469q0 217 139 355.5t358 138.5q215 0 356.5 -145.5t131.5 -393.5h-678q8 -127 90 -196.5t221 -69.5q90 0 168 29.5t182 105.5v-187q-170 -125 -421 -124q-248 0 -397.5 133t-149.5 354zM223 1038l203 359h281l202 -359h-182l-160 179l-164 -179h-180zM389 580h410 q-8 96 -63.5 151t-141.5 55q-88 0 -142.5 -54t-62.5 -152z" />
<glyph unicode="&#xeb;" horiz-adv-x="1130" d="M76 469q0 217 139 355.5t358 138.5q215 0 356.5 -145.5t131.5 -393.5h-678q8 -127 90 -196.5t221 -69.5q90 0 168 29.5t182 105.5v-187q-170 -125 -421 -124q-248 0 -397.5 133t-149.5 354zM225 1216.5q0 55.5 39 94.5t94.5 39t94.5 -39t39 -94.5t-39 -94.5t-94.5 -39 t-94.5 39t-39 94.5zM389 580h410q-8 96 -63.5 151t-141.5 55q-88 0 -142.5 -54t-62.5 -152zM641 1216.5q0 55.5 39 94.5t94 39t94 -39t39 -94.5t-39 -94.5t-94 -39t-94 39t-39 94.5z" />
<glyph unicode="&#xec;" horiz-adv-x="555" d="M-47 1384h338l151 -299h-151zM129 0v944h297v-944h-297z" />
<glyph unicode="&#xed;" horiz-adv-x="555" d="M115 1085l151 299h338l-338 -299h-151zM129 0v944h297v-944h-297z" />
<glyph unicode="&#xee;" horiz-adv-x="555" d="M-66 1038l203 359h281l203 -359h-183l-159 179l-164 -179h-181zM129 0v944h297v-944h-297z" />
<glyph unicode="&#xef;" horiz-adv-x="555" d="M-63 1216.5q0 55.5 38.5 94.5t94 39t94.5 -39t39 -94.5t-39 -94.5t-94.5 -39t-94 39t-38.5 94.5zM129 0v944h297v-944h-297zM352 1216.5q0 55.5 39 94.5t94.5 39t94 -39t38.5 -94.5t-38.5 -94.5t-94 -39t-94.5 39t-39 94.5z" />
<glyph unicode="&#xf0;" horiz-adv-x="1259" d="M94 473q0 205 137.5 347.5t337.5 142.5q115 0 228 -74l4 2q-39 102 -176 229l-297 -104l-45 123l225 80q-59 43 -107 65l187 131q104 -45 184 -100l281 100l45 -127l-205 -71q266 -264 266 -664q0 -131 -36 -234.5t-90 -165t-128 -101.5t-141.5 -55t-134.5 -15 q-233 0 -384 135t-151 356zM412 473q0 -170 60 -242.5t157 -72.5q104 0 158.5 83t54.5 238q0 307 -213 307q-100 0 -158.5 -78.5t-58.5 -234.5z" />
<glyph unicode="&#xf1;" horiz-adv-x="1193" d="M123 0v944h297v-135q133 154 307 154q135 0 239.5 -87.5t104.5 -275.5v-600h-297v575q0 96 -40 142.5t-107 46.5q-55 0 -102.5 -35t-104.5 -121v-608h-297zM199 1069q10 143 74.5 224t168.5 81q66 0 174.5 -55t149.5 -55q72 0 90 110h139q-10 -147 -71.5 -228t-167.5 -81 q-63 0 -178 55.5t-152 55.5q-80 0 -92 -107h-135z" />
<glyph unicode="&#xf2;" horiz-adv-x="1216" d="M76 473q0 229 155.5 359.5t378.5 130.5q92 0 181.5 -27t170 -82t130 -154.5t49.5 -228.5q0 -109 -36 -195t-91.5 -140t-127 -90t-140 -50t-136.5 -14q-233 0 -383.5 135t-150.5 356zM285 1384h338l151 -299h-151zM393 473q0 -170 60.5 -242.5t156.5 -72.5q104 0 158.5 83 t54.5 238q0 307 -213 307q-100 0 -158.5 -78.5t-58.5 -234.5z" />
<glyph unicode="&#xf3;" horiz-adv-x="1216" d="M76 473q0 229 155.5 359.5t378.5 130.5q92 0 181.5 -27t170 -82t130 -154.5t49.5 -228.5q0 -109 -36 -195t-91.5 -140t-127 -90t-140 -50t-136.5 -14q-233 0 -383.5 135t-150.5 356zM393 473q0 -170 60.5 -242.5t156.5 -72.5q104 0 158.5 83t54.5 238q0 307 -213 307 q-100 0 -158.5 -78.5t-58.5 -234.5zM446 1085l152 299h338l-338 -299h-152z" />
<glyph unicode="&#xf4;" horiz-adv-x="1216" d="M76 473q0 229 155.5 359.5t378.5 130.5q92 0 181.5 -27t170 -82t130 -154.5t49.5 -228.5q0 -109 -36 -195t-91.5 -140t-127 -90t-140 -50t-136.5 -14q-233 0 -383.5 135t-150.5 356zM266 1038l203 359h281l202 -359h-182l-160 179l-164 -179h-180zM393 473 q0 -170 60.5 -242.5t156.5 -72.5q104 0 158.5 83t54.5 238q0 307 -213 307q-100 0 -158.5 -78.5t-58.5 -234.5z" />
<glyph unicode="&#xf5;" horiz-adv-x="1216" d="M76 473q0 229 155.5 359.5t378.5 130.5q92 0 181.5 -27t170 -82t130 -154.5t49.5 -228.5q0 -109 -36 -195t-91.5 -140t-127 -90t-140 -50t-136.5 -14q-233 0 -383.5 135t-150.5 356zM211 1069q10 143 74.5 224t169.5 81q66 0 174 -55t149 -55q72 0 90 110h140 q-10 -147 -72 -228t-168 -81q-63 0 -178 55.5t-152 55.5q-80 0 -92 -107h-135zM393 473q0 -170 60.5 -242.5t156.5 -72.5q104 0 158.5 83t54.5 238q0 307 -213 307q-100 0 -158.5 -78.5t-58.5 -234.5z" />
<glyph unicode="&#xf6;" horiz-adv-x="1216" d="M76 473q0 229 155.5 359.5t378.5 130.5q92 0 181.5 -27t170 -82t130 -154.5t49.5 -228.5q0 -109 -36 -195t-91.5 -140t-127 -90t-140 -50t-136.5 -14q-233 0 -383.5 135t-150.5 356zM268 1216.5q0 55.5 39 94.5t94.5 39t94.5 -39t39 -94.5t-39 -94.5t-94.5 -39t-94.5 39 t-39 94.5zM393 473q0 -170 60.5 -242.5t156.5 -72.5q104 0 158.5 83t54.5 238q0 307 -213 307q-100 0 -158.5 -78.5t-58.5 -234.5zM684 1216.5q0 55.5 39 94.5t94 39t94 -39t39 -94.5t-39 -94.5t-94 -39t-94 39t-39 94.5z" />
<glyph unicode="&#xf7;" horiz-adv-x="1196" d="M86 592v262h1024v-262h-1024zM449 319.5q0 61.5 44 105.5t105 44t105.5 -44t44.5 -105.5t-44.5 -105.5t-105.5 -44t-105 44t-44 105.5zM449 1126.5q0 61.5 44 105.5t105 44t105.5 -44t44.5 -105.5t-44.5 -105.5t-105.5 -44t-105 44t-44 105.5z" />
<glyph unicode="&#xf8;" horiz-adv-x="1216" d="M76 473q0 229 155.5 359.5t378.5 130.5q150 0 271 -60l143 166l109 -104l-127 -150q135 -129 135 -344q0 -109 -36 -195t-91.5 -140t-127 -90t-140 -50t-136.5 -14q-160 0 -272 61l-133 -154l-105 93l121 141q-145 137 -145 350zM393 473q0 -80 13 -133l337 399 q-53 47 -133 47q-100 0 -158.5 -78.5t-58.5 -234.5zM477 205q47 -47 133 -47q104 0 158.5 83t54.5 238q0 68 -10 117z" />
<glyph unicode="&#xf9;" horiz-adv-x="1193" d="M123 340v604h297v-584q0 -94 42 -137t107 -43q68 0 124.5 46t78.5 116v602h299v-944h-297v135q-133 -154 -305 -153q-150 0 -248 92t-98 266zM272 1384h338l152 -299h-152z" />
<glyph unicode="&#xfa;" horiz-adv-x="1193" d="M123 340v604h297v-584q0 -94 42 -137t107 -43q68 0 124.5 46t78.5 116v602h299v-944h-297v135q-133 -154 -305 -153q-150 0 -248 92t-98 266zM434 1085l152 299h338l-338 -299h-152z" />
<glyph unicode="&#xfb;" horiz-adv-x="1193" d="M123 340v604h297v-584q0 -94 42 -137t107 -43q68 0 124.5 46t78.5 116v602h299v-944h-297v135q-133 -154 -305 -153q-150 0 -248 92t-98 266zM254 1038l203 359h280l203 -359h-182l-160 179l-164 -179h-180z" />
<glyph unicode="&#xfc;" horiz-adv-x="1193" d="M123 340v604h297v-584q0 -94 42 -137t107 -43q68 0 124.5 46t78.5 116v602h299v-944h-297v135q-133 -154 -305 -153q-150 0 -248 92t-98 266zM256 1216.5q0 55.5 39 94.5t94 39t94 -39t39 -94.5t-39 -94.5t-94 -39t-94 39t-39 94.5zM672 1216.5q0 55.5 39 94.5t94 39 t94 -39t39 -94.5t-39 -94.5t-94 -39t-94 39t-39 94.5z" />
<glyph unicode="&#xfd;" horiz-adv-x="1044" d="M2 944h317l199 -485l213 485h311l-632 -1397h-316l277 607zM360 1085l152 299h338l-338 -299h-152z" />
<glyph unicode="&#xfe;" horiz-adv-x="1193" d="M117 -471v1868h297v-535q121 100 270 101q184 0 311 -138.5t127 -341.5q0 -227 -127 -364t-338 -137q-133 0 -243 65v-518h-297zM414 242q84 -61 172 -62q109 0 172 77t63 210q0 135 -58 210t-165 75q-86 0 -184 -76v-434z" />
<glyph unicode="&#xff;" horiz-adv-x="1044" d="M2 944h317l199 -485l213 485h311l-632 -1397h-316l277 607zM182 1216.5q0 55.5 39 94.5t94.5 39t94.5 -39t39 -94.5t-39 -94.5t-94.5 -39t-94.5 39t-39 94.5zM598 1216.5q0 55.5 39 94.5t94 39t94 -39t39 -94.5t-39 -94.5t-94 -39t-94 39t-39 94.5z" />
<glyph unicode="&#x152;" horiz-adv-x="2240" d="M96 702q0 315 209 505t569 190h1244v-256h-654v-293h625v-256h-625v-336h668v-256h-1255q-348 0 -564.5 185t-216.5 517zM455 698q0 -188 133 -315t360 -127h168v885h-168q-229 0 -361 -128.5t-132 -314.5z" />
<glyph unicode="&#x153;" horiz-adv-x="1792" d="M74 477q0 209 153.5 347.5t384.5 138.5q98 0 177 -25t172 -88q82 66 141 89.5t143 23.5q215 0 355.5 -143.5t130.5 -393.5h-609q-4 -117 68 -192.5t182 -75.5q184 0 342 147v-203q-174 -121 -372.5 -120.5t-366.5 120.5q-162 -121 -367 -120q-227 0 -380.5 141 t-153.5 354zM391 469q0 -311 217 -311q111 0 164 80.5t53 253.5q0 141 -57 217.5t-164 76.5q-213 0 -213 -317zM1122 582h336q0 86 -46 145t-128 59q-72 0 -117 -56t-45 -148z" />
<glyph unicode="&#x178;" horiz-adv-x="1449" d="M0 1397h422l303 -439l305 439h420l-551 -744v-653h-348v653zM385 1663q0 55 39 94t94 39t94 -39t39 -94t-39 -94t-94 -39t-94 39t-39 94zM801 1663q0 55 39 94t94 39t94 -39t39 -94t-39 -94t-94 -39t-94 39t-39 94z" />
<glyph unicode="&#x2c6;" d="M-2 1038l203 359h280l203 -359h-182l-160 179l-164 -179h-180z" />
<glyph unicode="&#x2dc;" d="M-57 1069q10 143 74.5 224t168.5 81q63 0 174 -55t150 -55q72 0 90 110h139q-10 -147 -71.5 -228t-167.5 -81q-61 0 -176 55.5t-154 55.5q-80 0 -92 -107h-135z" />
<glyph unicode="&#x2000;" horiz-adv-x="950" />
<glyph unicode="&#x2001;" horiz-adv-x="1902" />
<glyph unicode="&#x2002;" horiz-adv-x="950" />
<glyph unicode="&#x2003;" horiz-adv-x="1902" />
<glyph unicode="&#x2004;" horiz-adv-x="632" />
<glyph unicode="&#x2005;" horiz-adv-x="475" />
<glyph unicode="&#x2006;" horiz-adv-x="315" />
<glyph unicode="&#x2007;" horiz-adv-x="315" />
<glyph unicode="&#x2008;" horiz-adv-x="237" />
<glyph unicode="&#x2009;" horiz-adv-x="378" />
<glyph unicode="&#x200a;" horiz-adv-x="104" />
<glyph unicode="&#x2010;" d="M74 338v272h534v-272h-534z" />
<glyph unicode="&#x2011;" d="M74 338v272h534v-272h-534z" />
<glyph unicode="&#x2012;" d="M74 338v272h534v-272h-534z" />
<glyph unicode="&#x2013;" horiz-adv-x="1024" d="M-12 338v270h1048v-270h-1048z" />
<glyph unicode="&#x2014;" horiz-adv-x="2048" d="M-12 338v270h2072v-270h-2072z" />
<glyph unicode="&#x2018;" horiz-adv-x="555" d="M92 1010q0 154 105.5 272.5t255.5 132.5v-63q-45 -41 -73 -117t-20 -148q104 -41 105 -149q0 -70 -48 -116t-120 -46q-90 0 -147.5 66t-57.5 168z" />
<glyph unicode="&#x2019;" horiz-adv-x="555" d="M90 1253q0 70 48 116t120 46q90 0 147.5 -65.5t57.5 -167.5q0 -154 -105.5 -272.5t-255.5 -133.5v64q45 41 73 116.5t20 147.5q-105 40 -105 149z" />
<glyph unicode="&#x201a;" horiz-adv-x="555" d="M90 131q0 70 48 116t120 46q90 0 147.5 -65.5t57.5 -168.5q0 -154 -105.5 -272.5t-255.5 -132.5v63q45 41 73 117t20 148q-105 40 -105 149z" />
<glyph unicode="&#x201c;" horiz-adv-x="1153" d="M117 1010q0 154 105.5 272.5t254.5 132.5v-63q-45 -41 -72.5 -117t-19.5 -148q104 -41 104 -149q0 -70 -48 -116t-119 -46q-90 0 -147.5 66t-57.5 168zM686 1010q0 154 105.5 272.5t255.5 132.5v-63q-45 -41 -73 -117t-20 -148q104 -41 105 -149q0 -70 -48 -116t-120 -46 q-90 0 -147.5 66t-57.5 168z" />
<glyph unicode="&#x201d;" horiz-adv-x="1153" d="M94 1253q0 70 48 116t120 46q90 0 147.5 -65.5t57.5 -167.5q0 -154 -105.5 -272.5t-255.5 -133.5v64q45 41 73 116.5t20 147.5q-105 40 -105 149zM664 1253q0 70 48 116t119 46q90 0 147.5 -65.5t57.5 -167.5q0 -154 -105.5 -272.5t-254.5 -133.5v64q45 41 72.5 116.5 t19.5 147.5q-104 40 -104 149z" />
<glyph unicode="&#x201e;" horiz-adv-x="1153" d="M104 131q0 70 48.5 116t119.5 46q90 0 147.5 -65.5t57.5 -168.5q0 -154 -105.5 -272.5t-254.5 -132.5v63q45 41 72.5 117t19.5 148q-105 40 -105 149zM676 131q0 70 48 116t120 46q90 0 147.5 -65.5t57.5 -168.5q0 -154 -105.5 -272.5t-255.5 -132.5v63q45 41 72.5 117 t19.5 148q-104 40 -104 149z" />
<glyph unicode="&#x2022;" horiz-adv-x="724" d="M66 698q0 123 86 209t208.5 86t208.5 -86t86 -209t-86 -209t-208.5 -86t-208.5 86t-86 209z" />
<glyph unicode="&#x2026;" horiz-adv-x="2048" d="M164 159.5q0 73.5 52 126t126 52.5t126 -52.5t52 -126t-52 -125.5t-126 -52t-126 52t-52 125.5zM846 159.5q0 73.5 52 126t126 52.5t126 -52.5t52 -126t-52 -125.5t-126 -52t-126 52t-52 125.5zM1528 159.5q0 73.5 52 126t126 52.5t126 -52.5t52 -126t-52 -125.5 t-126 -52t-126 52t-52 125.5z" />
<glyph unicode="&#x202f;" horiz-adv-x="378" />
<glyph unicode="&#x2039;" horiz-adv-x="661" d="M18 469l330 455h293l-326 -455l326 -455h-293z" />
<glyph unicode="&#x203a;" horiz-adv-x="661" d="M20 14l326 455l-326 455h293l330 -455l-330 -455h-293z" />
<glyph unicode="&#x205f;" horiz-adv-x="475" />
<glyph unicode="&#x20ac;" horiz-adv-x="1284" d="M33 467l33 168h116q-2 63 2 131h-151l33 168h145q16 61 42 119.5t75 126t113.5 118t165 84t218.5 33.5q137 0 340 -43l-43 -260q-164 41 -276 41q-233 0 -316 -219h547l-33 -168h-552q-4 -57 0 -131h536l-33 -168h-471q49 -121 117 -172t174 -51q117 0 326 96v-268 q-207 -90 -371 -90q-129 0 -232.5 43t-168 117.5t-104.5 154.5t-60 170h-172z" />
<glyph unicode="&#x2122;" horiz-adv-x="2048" d="M217 1323v143h664v-143h-246v-676h-166v676h-252zM979 647v819h260l147 -565h5l147 565h260v-819h-158v653h-4l-174 -653h-149l-172 653h-4v-653h-158z" />
<glyph unicode="&#xe000;" horiz-adv-x="945" d="M0 945h945v-945h-945v945z" />
<glyph unicode="&#xfb01;" horiz-adv-x="1216" d="M41 741v203h125q0 471 420 471q72 0 133 -18v-234q-43 6 -74 6q-109 0 -145.5 -50t-36.5 -175h190v-203h-190v-741h-297v741h-125zM780 1255.5q0 65.5 48.5 112.5t114 47t112.5 -47t47 -112.5t-47 -113.5t-112.5 -48t-114 48t-48.5 113.5zM793 0v944h297v-944h-297z" />
<glyph unicode="&#xfb02;" horiz-adv-x="1216" d="M43 741v203h123q0 229 99.5 350t320.5 121q72 0 133 -18v-234q-43 6 -74 6q-109 0 -145.5 -50t-36.5 -175h190v-203h-190v-741h-297v741h-123zM793 0v1397h297v-1397h-297z" />
<glyph unicode="&#xfb03;" horiz-adv-x="1792" d="M1350 1251.5q0 67.5 48 115.5t115.5 48t115.5 -48t48 -115.5t-48 -116t-115.5 -48.5t-115.5 48.5t-48 116zM1366 0v944h297v-944h-297zM649 741v203h135v47q0 203 113.5 313.5t300.5 110.5q45 0 180 -18v-240q-94 12 -133 12q-164 0 -164 -165v-60h135v-203h-135v-741 h-297v741h-135zM31 741v203h135v47q0 203 113.5 313.5t300.5 110.5q45 0 180 -18v-240q-94 12 -133 12q-164 0 -164 -165v-60h135v-203h-135v-741h-297v741h-135z" />
<glyph unicode="&#xfb04;" horiz-adv-x="1792" d="M1366 0v1397h297v-1397h-297zM649 741v203h135v47q0 203 113.5 313.5t300.5 110.5q45 0 180 -18v-240q-94 12 -133 12q-164 0 -164 -165v-60h135v-203h-135v-741h-297v741h-135zM31 741v203h135v47q0 203 113.5 313.5t300.5 110.5q45 0 180 -18v-240q-94 12 -133 12 q-164 0 -164 -165v-60h135v-203h-135v-741h-297v741h-135z" />
</font>
</defs>
</svg>
